<svg width="49" height="48" viewBox="0 0 49 48" fill="none" xmlns="http://www.w3.org/2000/svg">
<g filter="url(#filter0_b_294_448)">
<rect x="0.678101" width="48" height="48" rx="12" fill="#5BF0BA" fill-opacity="0.1"/>
<rect x="1.6781" y="1" width="46" height="46" rx="11" stroke="url(#paint0_linear_294_448)" stroke-opacity="0.3" stroke-width="2"/>
</g>
<path d="M18.4676 33H30.0356V31.152H21.2516L26.2916 26.88C28.2836 25.176 29.9156 23.592 29.9156 21.072C29.9156 18.048 27.8036 16.056 24.1796 16.056C20.7956 16.056 18.5636 18.312 18.5636 21.48V21.912H20.5796V21.6C20.5796 19.296 22.0196 17.856 24.1796 17.856C26.4116 17.856 27.8516 19.056 27.8516 21.168C27.8516 22.992 26.5556 24.288 24.9956 25.632L18.4676 31.296V33Z" fill="#5BF0BA" fill-opacity="0.95"/>
<defs>
<filter id="filter0_b_294_448" x="-29.3219" y="-30" width="108" height="108" filterUnits="userSpaceOnUse" color-interpolation-filters="sRGB">
<feFlood flood-opacity="0" result="BackgroundImageFix"/>
<feGaussianBlur in="BackgroundImage" stdDeviation="15"/>
<feComposite in2="SourceAlpha" operator="in" result="effect1_backgroundBlur_294_448"/>
<feBlend mode="normal" in="SourceGraphic" in2="effect1_backgroundBlur_294_448" result="shape"/>
</filter>
<linearGradient id="paint0_linear_294_448" x1="7.56335" y1="-3.1236e-07" x2="44.547" y2="48" gradientUnits="userSpaceOnUse">
<stop stop-color="#5BF0BA"/>
<stop offset="1" stop-color="#5BF0BA" stop-opacity="0.19"/>
</linearGradient>
</defs>
</svg>
