<svg width="16" height="16" viewBox="0 0 16 16" fill="none" xmlns="http://www.w3.org/2000/svg">
<g clip-path="url(#clip0_294_523)">
<path d="M3.72436 5.14746H0.512337C0.369782 5.14746 0.254272 5.26302 0.254272 5.40553V15.7244C0.254272 15.8669 0.369782 15.9825 0.512337 15.9825H3.72436C3.86692 15.9825 3.98243 15.8669 3.98243 15.7244V5.40553C3.98243 5.26302 3.86692 5.14746 3.72436 5.14746Z" fill="#9D9D9D"/>
<path d="M2.11954 0.0175781C0.950813 0.0175781 0 0.967359 0 2.13479C0 3.30274 0.950813 4.25288 2.11954 4.25288C3.28733 4.25288 4.23737 3.30269 4.23737 2.13479C4.23742 0.967359 3.28733 0.0175781 2.11954 0.0175781Z" fill="#9D9D9D"/>
<path d="M11.8944 4.89062C10.6043 4.89062 9.65067 5.44521 9.07225 6.07535V5.40515C9.07225 5.26265 8.95674 5.14709 8.81418 5.14709H5.73811C5.59555 5.14709 5.48004 5.26265 5.48004 5.40515V15.724C5.48004 15.8666 5.59555 15.9821 5.73811 15.9821H8.94311C9.08567 15.9821 9.20118 15.8666 9.20118 15.724V10.6186C9.20118 8.89816 9.66848 8.22792 10.8678 8.22792C12.1739 8.22792 12.2777 9.30239 12.2777 10.7071V15.7241C12.2777 15.8666 12.3932 15.9821 12.5357 15.9821H15.7419C15.8845 15.9821 16 15.8666 16 15.7241V10.064C16 7.5058 15.5122 4.89062 11.8944 4.89062Z" fill="#9D9D9D"/>
</g>
<defs>
<clipPath id="clip0_294_523">
<rect width="16" height="16" fill="white"/>
</clipPath>
</defs>
</svg>
