<svg xmlns="http://www.w3.org/2000/svg" width="202.749" height="60" viewBox="0 0 202.749 60">
  <g id="seedcamp" transform="translate(-22.2 -232.9)">
    <path id="Path_1191" data-name="Path 1191" d="M178.3,318.416H166.978a.256.256,0,0,0-.068-.135,1.333,1.333,0,0,1,.473-.169c.473-.068.946-.135,1.42-.169.406-.034.541-.3.575-.676V306.416a8.813,8.813,0,0,0-.169-1.623,2.8,2.8,0,0,0-2.434-2.3,5.674,5.674,0,0,0-3.583.575c-.1.034-.169.2-.2.338a1.912,1.912,0,0,0,0,.439V317c0,.98.1.879.98,1.048.406.068.879.068,1.285.1.135,0,.237.135.372.2-.034.034-.034.068-.068.135H154.065c-.034-.034-.034-.068-.068-.1a1.82,1.82,0,0,1,.439-.237c.507-.068,1.048-.135,1.555-.2a.554.554,0,0,0,.575-.642c-.034-4.5.034-8.992-.034-13.487-.034-1.623-.406-1.792-2.13-2.2-.2-.034-.406-.1-.744-.169.169-.135.237-.237.338-.27,2.975-.811,5.915-1.623,8.89-2.4h.169v3.887c.406-.338.777-.71,1.217-1.048a14.441,14.441,0,0,1,4.124-2.535,5.265,5.265,0,0,1,5.577.845,4.772,4.772,0,0,1,1.453,2.4c.169.575.2.575.642.169a17.7,17.7,0,0,1,3.955-2.941,7.3,7.3,0,0,1,3.448-.913,4.784,4.784,0,0,1,4.6,3.752,24.632,24.632,0,0,1,.406,4.732c.034,3.313,0,6.625,0,9.938,0,.676,0,.676.676.811.575.1,1.149.169,1.724.27a2.273,2.273,0,0,1,.406.2l-.068.135H179.789l-.068-.068c.135-.068.237-.2.372-.237.406-.068.811-.068,1.251-.1.608-.034.744-.169.744-.777v-2.163c0-3.177.034-6.321-.034-9.5-.034-2.265-1.352-3.008-3.211-3.144a4.368,4.368,0,0,0-2.265.406,1.338,1.338,0,0,0-.845,1.318c.034,4.361.034,8.721.034,13.082,0,.608.034.642.608.71.541.068,1.082.1,1.589.169a1.142,1.142,0,0,1,.372.237c0-.068-.034-.034-.034,0Zm-78.9-27.651c3.177-.811,6.389-1.487,9.668-2.265v25.893a5.6,5.6,0,0,0,.1,1.082,1.508,1.508,0,0,0,1.217,1.251c.507.135,1.014.27,1.555.406a72.908,72.908,0,0,1-9.3,1.859V314.8l-.169-.135a.836.836,0,0,1-.135.3,11.516,11.516,0,0,1-3.685,3.177,6.636,6.636,0,0,1-7.639-.777,9.293,9.293,0,0,1-3.448-5.882,10.571,10.571,0,0,1,.608-6.456,10.3,10.3,0,0,1,7.3-5.915c.98-.237,1.994-.338,3.008-.507.068.338.068.541-.237.575a3.436,3.436,0,0,0-2.366,1.589,9.067,9.067,0,0,0-1.217,3.346,19.817,19.817,0,0,0-.27,4.9,8.626,8.626,0,0,0,1.825,5.206,3.919,3.919,0,0,0,5.172.811c1.285-.777,1.285-.777,1.285-2.265V294.213c0-.541-.1-1.115-.135-1.656A1.524,1.524,0,0,0,101.1,291.2c-.541-.1-1.082-.2-1.656-.3ZM22.3,309.593c.1.135.237.237.338.372.845,1.454,1.656,2.975,2.569,4.394a7.863,7.863,0,0,0,3.752,3.346,8.677,8.677,0,0,0,6.254.135,4.442,4.442,0,0,0,2.873-4.056,5.251,5.251,0,0,0-3.042-5.307c-.71-.372-1.42-.71-2.163-1.014-1.623-.676-3.279-1.284-4.9-1.994a8.47,8.47,0,0,1-3.685-2.738,6.65,6.65,0,0,1-1.217-4.9,8.129,8.129,0,0,1,1.69-4.259,9.353,9.353,0,0,1,5.713-3.38,16.355,16.355,0,0,1,8.349.845,1.152,1.152,0,0,0,.676,0c.507-.135,1.014-.338,1.521-.507a.256.256,0,0,1,.135.034l.169,8.18-.1.1a1.771,1.771,0,0,1-.372-.338L36.6,291.711a1.67,1.67,0,0,0-.676-.608,5.7,5.7,0,0,0-2.468-.541,8.285,8.285,0,0,0-2.738.237,3.93,3.93,0,0,0-2.873,3.617A3.864,3.864,0,0,0,29.806,298a21.749,21.749,0,0,0,4.327,1.961c1.251.507,2.535.946,3.752,1.521a7.87,7.87,0,0,1,4.732,5.983,8.983,8.983,0,0,1-3.211,8.721,10.945,10.945,0,0,1-7.5,2.6,24.526,24.526,0,0,1-7.5-1.014c-.068-.034-.1-.034-.169-.068-1.318-.473-1.285-.473-1.386-1.825-.1-1.318-.27-2.67-.406-3.989-.068-.777-.135-1.555-.237-2.332,0,.1.034.068.1.034Zm121.217,4.969c-.135.135-.2.237-.3.338a34.926,34.926,0,0,1-3.346,3.008,4.9,4.9,0,0,1-6.693-.845,4.279,4.279,0,0,1,.2-5.476,11.211,11.211,0,0,1,4.428-2.738c1.792-.676,3.617-1.217,5.442-1.792.3-.1.439-.2.439-.541a12.5,12.5,0,0,0-.27-3.549,3.923,3.923,0,0,0-3.279-3.042,8.168,8.168,0,0,0-2.4.068c-.71.1-.845.642-.439,1.217.3.406.575.811.879,1.251a2.343,2.343,0,0,1-.676,3.177,3.622,3.622,0,0,1-4.056.034,2.346,2.346,0,0,1-.473-3.211,5.657,5.657,0,0,1,1.487-1.487,12.688,12.688,0,0,1,5.375-2.028,17.509,17.509,0,0,1,2.637-.3,10.679,10.679,0,0,1,4.7.676,4.549,4.549,0,0,1,2.806,3.718,22.507,22.507,0,0,1,0,5l-.1,2.028c-.034,1.42-.1,2.873-.1,4.293a1.662,1.662,0,0,0,1.758,1.656,1.615,1.615,0,0,0,.777-.338c.3-.27.541-.608.845-.913.1-.1.27-.1.406-.169a.256.256,0,0,1,.068.135l-1.014,1.217a12.429,12.429,0,0,1-2.637,2.332,3.944,3.944,0,0,1-6.152-2.265,11.122,11.122,0,0,0-.3-1.454Zm.068-7a9.506,9.506,0,0,0-3.279,1.352,4.047,4.047,0,0,0-.879.811,3.986,3.986,0,0,0-.811,3.549,2.311,2.311,0,0,0,2.7,2.1,2.916,2.916,0,0,0,1.825-1.014.924.924,0,0,0,.27-.642c.068-1.149.135-2.3.169-3.448.034-.947,0-1.825,0-2.7Zm-79.031-1.792h-2.7c-.575,0-1.183-.034-1.758-.034l-7.369-.1c-.237,0-.439,0-.439.3a13.15,13.15,0,0,0,.845,5.713,6.208,6.208,0,0,0,4.53,3.786,5.7,5.7,0,0,0,6.592-3.008c.034-.1.1-.169.3-.3a.928.928,0,0,1,.068.406c-1.42,3.38-3.651,5.882-7.538,6.456a9.774,9.774,0,0,1-7.437-1.555,9.444,9.444,0,0,1-3.989-6.49,10.336,10.336,0,0,1,2.13-8.349,10.61,10.61,0,0,1,6.963-3.955,10.073,10.073,0,0,1,5.814.642,6.383,6.383,0,0,1,3.921,4.665c.068.575.034,1.217.068,1.825ZM58.606,305c-.034-.777-.068-1.521-.169-2.265a5.253,5.253,0,0,0-.913-2.6,3.067,3.067,0,0,0-1.115-.879,1.989,1.989,0,0,0-2.231.744,7.952,7.952,0,0,0-1.792,5Zm26.839.811H84.87l-11.155-.2c-.338,0-.507.1-.507.406a12.858,12.858,0,0,0,.913,5.746,6.2,6.2,0,0,0,4.462,3.651,5.76,5.76,0,0,0,6.592-3.008,3.511,3.511,0,0,1,.237-.406c.068.237.169.372.135.473-1.42,3.38-3.617,5.915-7.5,6.49a9.951,9.951,0,0,1-8.113-1.994,8.971,8.971,0,0,1-3.245-5.307,10.46,10.46,0,0,1,3.008-10.242,10.747,10.747,0,0,1,6.862-2.941,9.609,9.609,0,0,1,5.882,1.251,6.208,6.208,0,0,1,3.042,4.9,4.625,4.625,0,0,1-.034,1.183ZM73.344,305H79.6c-.034-.541-.034-1.048-.068-1.521a7.126,7.126,0,0,0-.845-3.11,1.993,1.993,0,0,0-3.414-.406c-1.386,1.352-1.69,3.177-1.927,5.037Zm57.87,7c.068.2.169.338.135.439a9.78,9.78,0,0,1-16.6,3.516,9.11,9.11,0,0,1-2.2-4.969,11.042,11.042,0,0,1,1.454-7.3,10.419,10.419,0,0,1,7.166-4.834,11.747,11.747,0,0,1,7.132.71,4.359,4.359,0,0,1,2.67,2.67,3.152,3.152,0,0,1-1.555,3.854,3.213,3.213,0,0,1-4.023-1.048,2.548,2.548,0,0,1-.237-2.67,12.361,12.361,0,0,1,.879-1.42.705.705,0,0,0-.2-1.115,3.162,3.162,0,0,0-2.4-.473c-1.893.3-2.772,1.656-3.346,3.245a11.976,11.976,0,0,0-.642,3.955,14.4,14.4,0,0,0,.541,4.935,5.438,5.438,0,0,0,4.023,3.955,5.939,5.939,0,0,0,5.442-1.048,12.622,12.622,0,0,0,1.521-1.961c.1-.169.135-.237.237-.439Zm0,0" transform="translate(0 -36.806)" fill="#28224b"/>
    <path id="Path_1190" data-name="Path 1190" d="M554.4,250.545c-.1.608-.135,1.217-.27,1.825a10.864,10.864,0,0,1-2.535,5.375,6.27,6.27,0,0,1-3.516,1.623,8.9,8.9,0,0,1-5.51-1.014c-1.724-.777-3.448-1.555-5.206-2.2-1.386-.507-2.839-.777-4.124.237a10.156,10.156,0,0,0-1.758,1.859,10.852,10.852,0,0,0-1.656,3.651l-.034.034c.135,3.955-3.651.879-.98.169a.573.573,0,0,0,.473-.473,22.489,22.489,0,0,1,2.5-6.524,9.748,9.748,0,0,0,1.386-5.476,3.117,3.117,0,0,0-1.622-2.806,14.33,14.33,0,0,0-3.718-1.318c-1.386-.372-2.806-.71-4.158-1.183a5.977,5.977,0,0,1-3.786-5.408,10.2,10.2,0,0,1,1.825-5.239c.169-.27.372-.507.575-.777l.169.034a7.063,7.063,0,0,1-.034.845,3.039,3.039,0,0,0,1.048,3.11,5.171,5.171,0,0,0,2.738,1.048,17.786,17.786,0,0,1,4.428.913,6.055,6.055,0,0,1,3.786,4.293,12.385,12.385,0,0,1,.034,6.287c-.2,1.014-.541,1.994-.811,3.076.2-.2.372-.338.541-.507a10.686,10.686,0,0,1,4.158-2.7,6.687,6.687,0,0,1,5.1.406,17.8,17.8,0,0,1,2.434,1.454,10.676,10.676,0,0,0,3.786,1.724,3.438,3.438,0,0,0,3.617-1.623c.2-.3.372-.642.608-.946.135-.169.338-.27.507-.439,0,.27,0,.473,0,.676Zm0,0" transform="translate(-329.449)" fill="#28224b" opacity="0.5"/>
    <path id="Path_1192" data-name="Path 1192" d="M529.79,261.937v4.09a6.029,6.029,0,0,0,.439-.473,10.7,10.7,0,0,1,4.563-3.245,7.326,7.326,0,0,1,7.808,2.366,10.185,10.185,0,0,1,2.366,6.186,10.359,10.359,0,0,1-1.893,6.93,10.854,10.854,0,0,1-6.828,4.225c-.676.135-1.352.2-2.062.3-.034-.338-.034-.541.338-.575a2.887,2.887,0,0,0,2.1-1.589,8.607,8.607,0,0,0,1.217-3.82,31.35,31.35,0,0,0,.169-4.361,7.9,7.9,0,0,0-2.163-5.544,4.023,4.023,0,0,0-4.53-.676c-1.521.71-1.555.777-1.555,2.468v23.392c0,.676.135.811.811.845.913.068,1.825.1,2.738.169.169,0,.338.2.507.27H520.494c.135-.3.439-.3.71-.338.541-.068,1.115-.1,1.69-.169a.475.475,0,0,0,.473-.575V268.156a13.23,13.23,0,0,0-.169-1.994,1.361,1.361,0,0,0-1.082-1.183c-.541-.135-1.048-.27-1.758-.439a1.991,1.991,0,0,1,.473-.237c2.67-.744,5.307-1.487,7.977-2.2A1.815,1.815,0,0,1,529.79,261.937Z" transform="translate(-329.449)" fill="#28224b"/>
  </g>
</svg>
