<svg width="82" height="32" viewBox="0 0 82 32" fill="none" xmlns="http://www.w3.org/2000/svg">
<g clip-path="url(#clip0_294_520)">
<path d="M25.9253 21.6175L26.9057 19.3298C27.9791 20.1235 29.3792 20.5435 30.7796 20.5435C31.8065 20.5435 32.4598 20.1468 32.4598 19.54C32.4364 17.8592 26.2754 19.1664 26.2285 14.9407C26.2051 12.7931 28.119 11.1356 30.8264 11.1356C32.4364 11.1356 34.047 11.5326 35.1904 12.4432L34.2743 14.7796C33.2223 14.1043 31.9229 13.6335 30.6862 13.6335C29.8461 13.6335 29.2858 14.0301 29.2858 14.544C29.3092 16.2015 35.5174 15.2909 35.5873 19.3298C35.5873 21.5242 33.72 23.065 31.0594 23.065C29.0993 23.065 27.3023 22.5982 25.925 21.6175H25.9253ZM64.9617 18.5015C64.7143 18.9404 64.3543 19.3058 63.9188 19.56C63.4832 19.8143 62.9878 19.9483 62.4832 19.9484C60.9108 19.9484 59.6362 18.6732 59.6362 17.1003C59.6362 15.5275 60.9108 14.2523 62.4832 14.2523C62.9878 14.2524 63.4832 14.3864 63.9188 14.6406C64.3543 14.8949 64.7143 15.2603 64.9617 15.6992L67.6873 14.1888C66.6664 12.3673 64.7191 11.1356 62.4832 11.1356C59.19 11.1356 56.5204 13.8059 56.5204 17.1003C56.5204 20.3945 59.19 23.065 62.4832 23.065C64.7191 23.065 66.6664 21.8333 67.6873 20.0118L64.9617 18.5015ZM37.3559 22.8315H40.7633V6.17041H37.3563L37.3559 22.8315ZM69.408 6.17041V22.8315H72.8153V17.8398L76.8529 22.8315H81.2082L76.0737 16.9015L80.8346 11.3682H76.6662L72.8153 15.9686V6.17041H69.408ZM51.2608 11.3689V12.7232C50.7008 11.7893 49.3238 11.1356 47.8768 11.1356C44.8896 11.1356 42.5325 13.7738 42.5325 17.0886C42.5325 20.4035 44.8896 23.065 47.8768 23.065C49.3238 23.065 50.7008 22.4114 51.2608 21.4775V22.8315H54.6681V11.3689H51.2608ZM51.2608 18.5245C50.7707 19.3415 49.7439 19.948 48.6005 19.948C47.0277 19.948 45.7531 18.6732 45.7531 17.1003C45.7531 15.5275 47.0277 14.2523 48.6005 14.2523C49.7439 14.2523 50.7707 14.8825 51.2608 15.7226V18.5245Z" fill="white" fill-opacity="0.4"/>
<path d="M7.93077 5.80225C6.82657 5.80225 5.93156 6.69779 5.93156 7.80217C5.93129 8.06454 5.98279 8.3244 6.08312 8.5669C6.18345 8.8094 6.33064 9.0298 6.51628 9.21551C6.70192 9.40122 6.92239 9.5486 7.16509 9.64925C7.40779 9.7499 7.66797 9.80184 7.93077 9.8021H9.93032V7.80217C9.93077 7.27226 9.72036 6.76387 9.34538 6.38882C8.9704 6.01377 8.46156 5.80278 7.93077 5.80225ZM7.93077 11.1354H2.59919C1.49499 11.1354 0.599976 12.0309 0.599976 13.1356C0.599976 14.24 1.49499 15.1356 2.59919 15.1356H7.93111C9.03498 15.1356 9.93032 14.24 9.93032 13.1356C9.93032 12.0309 9.03498 11.1354 7.93077 11.1354Z" fill="white" fill-opacity="0.4"/>
<path d="M20.5937 13.1356C20.5937 12.0309 19.6984 11.1354 18.5942 11.1354C17.49 11.1354 16.5949 12.0309 16.5949 13.1356V15.1356H18.5942C19.125 15.135 19.6338 14.9241 20.0088 14.549C20.3838 14.174 20.5942 13.6656 20.5937 13.1356ZM15.2621 13.1356V7.80217C15.2626 7.27226 15.0522 6.76387 14.6772 6.38882C14.3022 6.01377 13.7934 5.80278 13.2626 5.80225C12.1584 5.80225 11.2634 6.69779 11.2634 7.80217V13.1353C11.2634 14.2404 12.1584 15.1359 13.2626 15.1359C13.7934 15.1354 14.3022 14.9244 14.6772 14.5493C15.0522 14.1743 15.2626 13.6659 15.2621 13.136" fill="white" fill-opacity="0.4"/>
<path d="M13.2626 25.8026C13.7934 25.802 14.3022 25.591 14.6772 25.216C15.0522 24.8409 15.2626 24.3326 15.2621 23.8026C15.2626 23.2727 15.0522 22.7643 14.6772 22.3893C14.3022 22.0142 13.7934 21.8032 13.2626 21.8027H11.2634V23.8026C11.2634 24.907 12.1584 25.8026 13.2626 25.8026ZM13.2626 20.4694H18.5945C19.6984 20.4694 20.5937 19.5739 20.5937 18.4692C20.5942 17.9393 20.3838 17.4309 20.0088 17.0558C19.6338 16.6808 19.125 16.4698 18.5942 16.4692H13.2626C12.1584 16.4692 11.2634 17.3648 11.2634 18.4692C11.2631 18.7315 11.3146 18.9914 11.4149 19.2339C11.5153 19.4764 11.6624 19.6968 11.8481 19.8825C12.0337 20.0682 12.2542 20.2156 12.4969 20.3162C12.7396 20.4169 12.9998 20.4688 13.2626 20.4691" fill="white" fill-opacity="0.4"/>
<path d="M0.599977 18.4692C0.599713 18.7315 0.651215 18.9914 0.751542 19.2339C0.851869 19.4764 0.999057 19.6968 1.1847 19.8825C1.37035 20.0682 1.59081 20.2156 1.83351 20.3162C2.07621 20.4169 2.33639 20.4688 2.59919 20.4691C3.12998 20.4686 3.63882 20.2576 4.0138 19.8825C4.38878 19.5075 4.59919 18.9991 4.59875 18.4692V16.4692H2.59919C1.49499 16.4692 0.599977 17.3648 0.599977 18.4692ZM5.93156 18.4692V23.8023C5.93156 24.907 6.82657 25.8026 7.93077 25.8026C8.46156 25.802 8.97041 25.591 9.34538 25.216C9.72036 24.8409 9.93077 24.3326 9.93033 23.8026V18.4692C9.93059 18.2068 9.87908 17.9469 9.77873 17.7044C9.67838 17.4618 9.53116 17.2414 9.34548 17.0557C9.1598 16.87 8.9393 16.7226 8.69656 16.622C8.45382 16.5214 8.19361 16.4695 7.93077 16.4692C6.82657 16.4692 5.93156 17.3648 5.93156 18.4692Z" fill="white" fill-opacity="0.4"/>
</g>
<defs>
<clipPath id="clip0_294_520">
<rect width="80.8" height="32" fill="white" transform="translate(0.599976)"/>
</clipPath>
</defs>
</svg>
