<svg width="94" height="32" viewBox="0 0 94 32" fill="none" xmlns="http://www.w3.org/2000/svg">
<g clip-path="url(#clip0_294_519)">
<path d="M14.0886 2.05273C6.33451 2.05273 0.0483093 8.32086 0.0483093 16.0528C0.0483093 23.7851 6.33451 30.0527 14.0886 30.0527C21.8435 30.0527 28.129 23.7851 28.129 16.0528C28.129 8.32136 21.8435 2.0534 14.0884 2.0534L14.0886 2.05273ZM20.5273 22.2449C20.2758 22.6561 19.736 22.7865 19.3235 22.5341C16.027 20.5263 11.8771 20.0715 6.98989 21.1849C6.51894 21.2919 6.04949 20.9977 5.94219 20.5279C5.83438 20.0581 6.12829 19.59 6.60042 19.483C11.9487 18.2646 16.5364 18.7892 20.2373 21.0445C20.6497 21.297 20.7805 21.8336 20.5273 22.2449ZM22.2458 18.4328C21.929 18.9464 21.255 19.1086 20.7403 18.7926C16.9663 16.4795 11.2134 15.8096 6.74947 17.1607C6.17054 17.3351 5.55909 17.0098 5.38338 16.4335C5.20902 15.8562 5.53545 15.2477 6.11337 15.0721C11.2124 13.5294 17.5514 14.2767 21.8854 16.9324C22.4001 17.2483 22.5627 17.9204 22.2458 18.433V18.4328ZM22.3934 14.4633C17.8683 11.7832 10.4024 11.5368 6.08202 12.8443C5.38824 13.0541 4.65457 12.6636 4.44432 11.9718C4.23408 11.2796 4.6254 10.5485 5.31967 10.3382C10.2792 8.83695 18.5238 9.127 23.7336 12.211C24.359 12.5803 24.5636 13.3839 24.193 14.0054C23.8242 14.6276 23.0161 14.8327 22.394 14.4633H22.3934ZM38.2472 14.9768C35.8229 14.4004 35.392 13.9958 35.392 13.1457C35.392 12.3426 36.1498 11.8021 37.2781 11.8021C38.3713 11.8021 39.4543 12.2125 40.5911 13.0574C40.6246 13.083 40.6682 13.0932 40.7101 13.0865C40.7537 13.0802 40.7906 13.0569 40.8157 13.022L41.9994 11.3582C42.048 11.2897 42.0346 11.1952 41.9692 11.1429C40.6162 10.0607 39.0939 9.53459 37.3133 9.53459C34.6962 9.53459 32.867 11.1009 32.867 13.342C32.867 15.7452 34.4447 16.5962 37.1708 17.253C39.4896 17.7858 39.8819 18.2322 39.8819 19.03C39.8819 19.9144 39.0905 20.4644 37.8163 20.4644C36.4013 20.4644 35.2461 19.9879 33.9551 18.8745C33.9233 18.8461 33.8797 18.8344 33.8395 18.8361C33.7959 18.8394 33.7573 18.8595 33.7305 18.8912L32.4026 20.4661C32.3473 20.5329 32.354 20.6299 32.4177 20.6867C33.9199 22.0242 35.7675 22.7297 37.7627 22.7297C40.5827 22.7297 42.4051 21.1933 42.4051 18.8143C42.4102 16.807 41.2047 15.6952 38.2522 14.979L38.2472 14.9768ZM48.7862 12.5928C47.564 12.5928 46.5614 13.073 45.7332 14.0568V12.9494C45.7332 12.862 45.6628 12.7908 45.5756 12.7908H43.4044C43.3172 12.7908 43.2468 12.862 43.2468 12.9494V25.2541C43.2468 25.3411 43.3172 25.413 43.4044 25.413H45.5756C45.6628 25.413 45.7332 25.3411 45.7332 25.2541V21.3705C46.5614 22.295 47.564 22.7481 48.7862 22.7481C51.058 22.7481 53.3583 21.0044 53.3583 17.671C53.3617 14.3369 51.0614 12.5927 48.7879 12.5927L48.7862 12.5928ZM50.8334 17.671C50.8334 19.3677 49.7855 20.553 48.2833 20.553C46.7995 20.553 45.6795 19.3142 45.6795 17.671C45.6795 16.0276 46.7995 14.7891 48.2833 14.7891C49.7603 14.7889 50.8334 16.0007 50.8334 17.6708V17.671ZM59.2515 12.5928C56.3259 12.5928 54.034 14.8391 54.034 17.7072C54.034 20.5446 56.3108 22.7665 59.2163 22.7665C62.152 22.7665 64.4506 20.5279 64.4506 17.671C64.4506 14.8237 62.1671 12.5932 59.2515 12.5932V12.5928ZM59.2515 20.5697C57.6956 20.5697 56.522 19.3225 56.522 17.6701C56.522 16.0102 57.6554 14.8056 59.2163 14.8056C60.7822 14.8056 61.9626 16.0523 61.9626 17.7064C61.9626 19.366 60.8225 20.5697 59.2515 20.5697ZM70.6976 12.7908H68.3084V10.3556C68.3084 10.2684 68.238 10.1971 68.1508 10.1971H65.9797C65.8925 10.1971 65.8204 10.2684 65.8204 10.3556V12.7908H64.7775C64.6904 12.7908 64.6199 12.862 64.6199 12.9494V14.8097C64.6199 14.8969 64.6904 14.9683 64.7775 14.9683H65.8204V19.7823C65.8204 21.7266 66.7911 22.713 68.7075 22.713C69.4854 22.713 70.1309 22.5525 70.7395 22.2081C70.7898 22.1813 70.82 22.1278 70.82 22.071V20.2989C70.82 20.2454 70.7915 20.1936 70.7445 20.1651C70.6976 20.135 70.6389 20.1334 70.5903 20.1585C70.1728 20.3674 69.7687 20.4644 69.3161 20.4644C68.6203 20.4644 68.3084 20.1484 68.3084 19.4429V14.9692H70.6976C70.7848 14.9692 70.8552 14.8979 70.8552 14.8105V12.9504C70.8585 12.863 70.7881 12.7918 70.6992 12.7918L70.6976 12.7908ZM79.0202 12.8003V12.5012C79.0202 11.6213 79.3588 11.229 80.1167 11.229C80.5693 11.229 80.9332 11.3186 81.3406 11.454C81.3909 11.4697 81.4428 11.4619 81.4831 11.4319C81.525 11.402 81.5485 11.354 81.5485 11.3032V9.47926C81.5485 9.40954 81.5049 9.34785 81.4361 9.32729C81.0069 9.19973 80.457 9.06883 79.6321 9.06883C77.6286 9.06883 76.5673 10.1946 76.5673 12.3233V12.7814H75.5245C75.4373 12.7814 75.3652 12.8526 75.3652 12.9399V14.8097C75.3652 14.8969 75.4373 14.9683 75.5245 14.9683H76.5673V22.392C76.5673 22.4806 76.6394 22.5508 76.7266 22.5508H78.8961C78.985 22.5508 79.0554 22.4806 79.0554 22.392V14.9688H81.0824L84.1874 22.392C83.8353 23.1711 83.4883 23.3265 83.0155 23.3265C82.6332 23.3265 82.2292 23.2129 81.8184 22.9872C81.7798 22.9671 81.7329 22.9638 81.6926 22.9755C81.6507 22.9905 81.6155 23.0206 81.5988 23.0607L80.8627 24.6707C80.8275 24.7476 80.8577 24.8362 80.9315 24.8763C81.6993 25.2909 82.3918 25.4681 83.2485 25.4681C84.8513 25.4681 85.7383 24.7225 86.5179 22.7197L90.2835 13.017C90.3036 12.9682 90.2969 12.913 90.2667 12.8697C90.2382 12.8267 90.1896 12.8008 90.1376 12.8008H87.8776C87.8088 12.8008 87.7485 12.8438 87.7267 12.9071L85.4113 19.4998L82.8763 12.9028C82.8528 12.8414 82.7942 12.8008 82.7288 12.8008H79.0202V12.8003ZM74.1949 12.7908H72.0238C71.9366 12.7908 71.8645 12.862 71.8645 12.9494V22.392C71.8645 22.4806 71.9366 22.5508 72.0238 22.5508H74.1949C74.2821 22.5508 74.3542 22.4806 74.3542 22.392V12.9501C74.3542 12.8627 74.2838 12.7914 74.1949 12.7914V12.7908ZM73.1219 8.49105C72.2618 8.49105 71.5644 9.18518 71.5644 10.0427C71.5644 10.9006 72.2618 11.5956 73.1219 11.5956C73.982 11.5956 74.6778 10.9006 74.6778 10.0427C74.6778 9.18535 73.9803 8.49105 73.1219 8.49105ZM92.1378 15.827C91.2794 15.827 90.6104 15.139 90.6104 14.3036C90.6104 13.4682 91.2878 12.7724 92.1462 12.7724C93.0046 12.7724 93.6735 13.4602 93.6735 14.2949C93.6735 15.1303 92.9962 15.827 92.1378 15.827ZM92.1462 12.9239C91.3632 12.9239 90.7714 13.5441 90.7714 14.3036C90.7714 15.0628 91.3599 15.6747 92.1378 15.6747C92.9208 15.6747 93.5126 15.0549 93.5126 14.2949C93.5126 13.5357 92.9241 12.9239 92.1462 12.9239ZM92.4848 14.4516L92.9174 15.0547H92.5519L92.1629 14.5014H91.8293V15.0547H91.5242V13.4558H92.2384C92.6123 13.4558 92.857 13.6459 92.857 13.9659C92.8587 14.228 92.7062 14.3882 92.4865 14.4516H92.4848ZM92.2266 13.7302H91.8293V14.2359H92.2266C92.4245 14.2359 92.5435 14.1391 92.5435 13.9828C92.5435 13.8183 92.4245 13.7302 92.2266 13.7302Z" fill="white" fill-opacity="0.4"/>
</g>
<defs>
<clipPath id="clip0_294_519">
<rect width="93.6" height="32" fill="white"/>
</clipPath>
</defs>
</svg>
