<svg width="64" height="64" viewBox="0 0 64 64" fill="none" xmlns="http://www.w3.org/2000/svg">
<g filter="url(#filter0_b_209_2325)">
<rect width="64" height="64" rx="12" fill="#5BF0BA" fill-opacity="0.1"/>
<rect x="1" y="1" width="62" height="62" rx="11" stroke="url(#paint0_linear_209_2325)" stroke-opacity="0.3" stroke-width="2"/>
</g>
<path d="M18.1152 28.9519C18.0576 28.8367 18 28.6639 18.0576 28.5487C18.8063 25.6114 20.4766 23.0196 22.7804 21.119C26.4665 18.0665 31.4772 17.2025 35.9696 18.7576C36.0848 18.8152 36.2 18.9304 36.2576 19.0456C36.3152 19.1608 36.3152 19.3335 36.2576 19.4487L35.5665 21.2342C35.4513 21.5222 35.1633 21.6373 34.9329 21.5222C31.362 20.2551 27.5032 21.0038 24.5658 23.3652C22.7804 24.8627 21.4557 26.9361 20.9373 29.2399C20.8797 29.4703 20.6494 29.643 20.419 29.643H20.3038L18.4608 29.1823C18.288 29.1823 18.1728 29.0671 18.1152 28.9519ZM45.012 33.4443C44.8968 33.3291 44.7816 33.2715 44.6665 33.2715L42.7658 33.0411C42.4778 32.9835 42.2475 33.2139 42.1899 33.5019C41.8443 36.0937 40.6348 38.4551 38.6766 40.1829C35.6816 43.0051 31.362 43.8114 27.5032 42.3139C27.2152 42.1987 26.9272 42.3715 26.812 42.6019L26.0633 44.3873C26.0057 44.5025 26.0057 44.6753 26.0633 44.7905C26.1209 44.9057 26.2361 45.0209 26.3513 45.0785C27.9639 45.712 29.6342 46 31.3044 46C34.7601 46 38.043 44.7329 40.5772 42.3715C42.9962 40.1253 44.5513 37.0728 44.9544 33.7899C45.1272 33.6747 45.1272 33.5595 45.012 33.4443ZM34.5297 36.0361V34.0778C34.5297 33.7899 34.2994 33.5595 34.0114 33.5595H18.5184C18.2304 33.5595 18 33.7899 18 34.0778V36.0361C18 36.324 18.2304 36.5544 18.5184 36.5544H34.0114C34.2994 36.5544 34.5297 36.324 34.5297 36.0361ZM28.5975 27.0513V29.0095C28.5975 29.2975 28.8278 29.5278 29.1158 29.5278H44.6089C44.8968 29.5278 45.1272 29.2975 45.1272 29.0095V27.0513C45.1272 26.7633 44.8968 26.5329 44.6089 26.5329H29.1158C28.8278 26.5329 28.5975 26.7633 28.5975 27.0513ZM39.9437 20.6006C39.0797 20.6006 38.331 21.2918 38.331 22.1557C38.331 23.0196 39.0222 23.7684 39.8861 23.7684C40.75 23.7684 41.4987 23.0772 41.4987 22.2133V22.1557C41.4987 21.3494 40.8076 20.6006 39.9437 20.6006ZM22.6652 39.8373C21.8013 39.8373 21.0525 40.5285 21.0525 41.3924C21.0525 42.2563 21.7437 43.0051 22.6076 43.0051C23.4715 43.0051 24.2203 42.3139 24.2203 41.45V41.3924C24.2203 40.5861 23.5291 39.8373 22.6652 39.8373Z" fill="white" fill-opacity="0.8"/>
<defs>
<filter id="filter0_b_209_2325" x="-30" y="-30" width="124" height="124" filterUnits="userSpaceOnUse" color-interpolation-filters="sRGB">
<feFlood flood-opacity="0" result="BackgroundImageFix"/>
<feGaussianBlur in="BackgroundImageFix" stdDeviation="15"/>
<feComposite in2="SourceAlpha" operator="in" result="effect1_backgroundBlur_209_2325"/>
<feBlend mode="normal" in="SourceGraphic" in2="effect1_backgroundBlur_209_2325" result="shape"/>
</filter>
<linearGradient id="paint0_linear_209_2325" x1="9.18033" y1="-4.1648e-07" x2="58.4918" y2="64" gradientUnits="userSpaceOnUse">
<stop stop-color="#5BF0BA"/>
<stop offset="1" stop-color="#5BF0BA" stop-opacity="0.19"/>
</linearGradient>
</defs>
</svg>
