<svg width="567" height="430" viewBox="0 0 567 430" fill="none" xmlns="http://www.w3.org/2000/svg">
<g filter="url(#filter0_d_294_251)">
<g clip-path="url(#clip0_294_251)">
<rect x="56" y="52" width="455" height="318" rx="8" fill="url(#paint0_linear_294_251)"/>
<path d="M94.3984 97.4844C94.3984 97.7578 94.3392 97.9948 94.2207 98.1953C94.1022 98.3913 93.9495 98.5531 93.7627 98.6807C93.5758 98.8128 93.3617 98.9108 93.1201 98.9746C92.8831 99.0339 92.6416 99.0635 92.3955 99.0635C92.0856 99.0635 91.7985 99.0225 91.5342 98.9404C91.2744 98.8538 91.0443 98.7262 90.8438 98.5576C90.6432 98.3936 90.4792 98.193 90.3516 97.9561C90.224 97.7145 90.1396 97.4388 90.0986 97.1289H88.8066C88.8203 97.5573 88.9137 97.9469 89.0869 98.2979C89.2646 98.6442 89.5039 98.9473 89.8047 99.207C90.1419 99.5078 90.5384 99.738 90.9941 99.8975C91.4544 100.057 91.9215 100.137 92.3955 100.137C92.792 100.137 93.1885 100.082 93.585 99.9727C93.9814 99.8587 94.3369 99.6901 94.6514 99.4668C94.9658 99.248 95.221 98.9723 95.417 98.6396C95.6175 98.307 95.7178 97.9173 95.7178 97.4707C95.7178 97.0286 95.6243 96.639 95.4375 96.3018C95.2552 95.9645 95.0137 95.6797 94.7129 95.4473C94.4076 95.1966 94.0703 94.9915 93.7012 94.832C93.332 94.668 92.9629 94.529 92.5938 94.415C92.3704 94.3467 92.1312 94.2669 91.876 94.1758C91.6253 94.0846 91.3929 93.9707 91.1787 93.834C90.96 93.6973 90.7799 93.5309 90.6387 93.335C90.4974 93.1344 90.4245 92.8906 90.4199 92.6035C90.4199 92.3392 90.4723 92.1068 90.5771 91.9062C90.6865 91.7057 90.8324 91.5371 91.0146 91.4004C91.1924 91.2637 91.3952 91.1611 91.623 91.0928C91.8555 91.0244 92.0924 90.9902 92.334 90.9902C92.6348 90.9902 92.9036 91.0381 93.1406 91.1338C93.3822 91.2249 93.5895 91.3548 93.7627 91.5234C93.9359 91.6921 94.0749 91.8949 94.1797 92.1318C94.2845 92.3643 94.3551 92.624 94.3916 92.9111H95.6904C95.6813 92.4554 95.5833 92.043 95.3965 91.6738C95.2096 91.3047 94.9613 90.9902 94.6514 90.7305C94.3415 90.4707 93.986 90.2702 93.585 90.1289C93.1839 89.9831 92.7669 89.9102 92.334 89.9102C91.9421 89.9102 91.5524 89.9717 91.165 90.0947C90.7777 90.2132 90.4313 90.3887 90.126 90.6211C89.8206 90.8535 89.5723 91.1383 89.3809 91.4756C89.194 91.8128 89.1006 92.1956 89.1006 92.624C89.1006 93.0524 89.194 93.4261 89.3809 93.7451C89.5723 94.0596 89.8184 94.333 90.1191 94.5654C90.4154 94.7933 90.7435 94.9893 91.1035 95.1533C91.4681 95.3128 91.8258 95.4495 92.1768 95.5635C92.4183 95.641 92.6689 95.7275 92.9287 95.8232C93.193 95.9189 93.4346 96.0374 93.6533 96.1787C93.8721 96.3245 94.0498 96.5023 94.1865 96.7119C94.3278 96.9215 94.3984 97.179 94.3984 97.4844ZM100.865 100.137C101.585 100.137 102.189 99.9932 102.677 99.7061C103.169 99.4144 103.538 99.0817 103.784 98.708L103.012 98.1064C102.779 98.4072 102.488 98.6488 102.137 98.8311C101.786 99.0133 101.385 99.1045 100.934 99.1045C100.592 99.1045 100.28 99.0407 99.9971 98.9131C99.7145 98.7855 99.473 98.61 99.2725 98.3867C99.0765 98.1771 98.9215 97.9355 98.8076 97.6621C98.6982 97.3887 98.6276 97.0719 98.5957 96.7119V96.6641H103.88V96.0967C103.88 95.5817 103.814 95.1032 103.682 94.6611C103.554 94.2191 103.358 93.834 103.094 93.5059C102.829 93.1823 102.497 92.9294 102.096 92.7471C101.699 92.5602 101.234 92.4668 100.701 92.4668C100.277 92.4668 99.8626 92.5534 99.457 92.7266C99.056 92.8997 98.6982 93.1481 98.3838 93.4717C98.0648 93.7998 97.8096 94.2008 97.6182 94.6748C97.4268 95.1442 97.3311 95.6774 97.3311 96.2744V96.5615C97.3311 97.0765 97.4176 97.5527 97.5908 97.9902C97.764 98.4277 98.0055 98.806 98.3154 99.125C98.6253 99.444 98.9967 99.6924 99.4297 99.8701C99.8672 100.048 100.346 100.137 100.865 100.137ZM100.701 93.5059C101.025 93.5059 101.303 93.5651 101.535 93.6836C101.772 93.8021 101.968 93.957 102.123 94.1484C102.278 94.3398 102.399 94.5677 102.485 94.832C102.572 95.0918 102.615 95.3356 102.615 95.5635V95.625H98.6367C98.6868 95.2832 98.7734 94.9824 98.8965 94.7227C99.0241 94.4583 99.179 94.235 99.3613 94.0527C99.5436 93.875 99.7487 93.7406 99.9766 93.6494C100.204 93.5537 100.446 93.5059 100.701 93.5059ZM106.204 89.5V90.6006H108.72V98.9062H106.204V100H112.397V98.9062H109.984V89.5H106.204ZM117.682 100.137C118.402 100.137 119.006 99.9932 119.493 99.7061C119.985 99.4144 120.354 99.0817 120.601 98.708L119.828 98.1064C119.596 98.4072 119.304 98.6488 118.953 98.8311C118.602 99.0133 118.201 99.1045 117.75 99.1045C117.408 99.1045 117.096 99.0407 116.813 98.9131C116.531 98.7855 116.289 98.61 116.089 98.3867C115.893 98.1771 115.738 97.9355 115.624 97.6621C115.515 97.3887 115.444 97.0719 115.412 96.7119V96.6641H120.696V96.0967C120.696 95.5817 120.63 95.1032 120.498 94.6611C120.37 94.2191 120.174 93.834 119.91 93.5059C119.646 93.1823 119.313 92.9294 118.912 92.7471C118.516 92.5602 118.051 92.4668 117.518 92.4668C117.094 92.4668 116.679 92.5534 116.273 92.7266C115.872 92.8997 115.515 93.1481 115.2 93.4717C114.881 93.7998 114.626 94.2008 114.435 94.6748C114.243 95.1442 114.147 95.6774 114.147 96.2744V96.5615C114.147 97.0765 114.234 97.5527 114.407 97.9902C114.58 98.4277 114.822 98.806 115.132 99.125C115.442 99.444 115.813 99.6924 116.246 99.8701C116.684 100.048 117.162 100.137 117.682 100.137ZM117.518 93.5059C117.841 93.5059 118.119 93.5651 118.352 93.6836C118.589 93.8021 118.785 93.957 118.939 94.1484C119.094 94.3398 119.215 94.5677 119.302 94.832C119.388 95.0918 119.432 95.3356 119.432 95.5635V95.625H115.453C115.503 95.2832 115.59 94.9824 115.713 94.7227C115.84 94.4583 115.995 94.235 116.178 94.0527C116.36 93.875 116.565 93.7406 116.793 93.6494C117.021 93.5537 117.262 93.5059 117.518 93.5059ZM125.974 99.1113C125.577 99.1113 125.244 99.0339 124.976 98.8789C124.711 98.7194 124.499 98.512 124.34 98.2568C124.176 98.0062 124.057 97.7236 123.984 97.4092C123.916 97.0902 123.882 96.7689 123.882 96.4453V96.1582C123.882 95.8392 123.916 95.5225 123.984 95.208C124.057 94.8936 124.176 94.6087 124.34 94.3535C124.504 94.1029 124.718 93.9001 124.982 93.7451C125.251 93.5856 125.582 93.5059 125.974 93.5059C126.229 93.5059 126.466 93.5492 126.685 93.6357C126.908 93.7223 127.099 93.8408 127.259 93.9912C127.418 94.1416 127.544 94.3171 127.635 94.5176C127.73 94.7135 127.781 94.9232 127.785 95.1465H128.981C128.981 94.7728 128.906 94.4219 128.756 94.0938C128.605 93.7656 128.398 93.4808 128.134 93.2393C127.865 93.0023 127.546 92.8154 127.177 92.6787C126.812 92.5374 126.411 92.4668 125.974 92.4668C125.413 92.4668 124.923 92.5671 124.504 92.7676C124.085 92.9681 123.736 93.237 123.458 93.5742C123.175 93.916 122.964 94.3102 122.822 94.7568C122.681 95.2035 122.61 95.6706 122.61 96.1582V96.4453C122.61 96.9375 122.681 97.4069 122.822 97.8535C122.964 98.2956 123.175 98.6852 123.458 99.0225C123.736 99.3643 124.085 99.6354 124.504 99.8359C124.923 100.036 125.413 100.137 125.974 100.137C126.366 100.137 126.742 100.071 127.102 99.9385C127.462 99.8018 127.781 99.6195 128.059 99.3916C128.337 99.1683 128.558 98.9085 128.722 98.6123C128.89 98.3115 128.977 97.9971 128.981 97.6689H127.785C127.781 97.874 127.726 98.0654 127.621 98.2432C127.521 98.4163 127.386 98.5667 127.218 98.6943C127.049 98.8265 126.855 98.929 126.637 99.002C126.423 99.0749 126.201 99.1113 125.974 99.1113ZM134.225 90.8125H132.953V92.6035H131.012V93.5811H132.953V97.6006C132.953 98.0563 133.012 98.446 133.131 98.7695C133.254 99.0885 133.42 99.3483 133.63 99.5488C133.84 99.7539 134.086 99.9043 134.368 100C134.655 100.091 134.963 100.137 135.291 100.137C135.487 100.137 135.683 100.128 135.879 100.109C136.079 100.091 136.269 100.064 136.446 100.027C136.624 99.9954 136.788 99.9567 136.938 99.9111C137.089 99.861 137.216 99.804 137.321 99.7402L137.144 98.8447C137.066 98.863 136.966 98.8857 136.843 98.9131C136.724 98.9359 136.597 98.9587 136.46 98.9814C136.319 99.0042 136.175 99.0247 136.029 99.043C135.883 99.0566 135.742 99.0635 135.605 99.0635C135.419 99.0635 135.241 99.0407 135.072 98.9951C134.908 98.9495 134.762 98.8698 134.635 98.7559C134.507 98.6465 134.407 98.4984 134.334 98.3115C134.261 98.1247 134.225 97.8877 134.225 97.6006V93.5811H137.041V92.6035H134.225V90.8125Z" fill="#9D9D9D"/>
<path d="M89.709 297H91.0078L92.2246 289.925L92.2998 289.501L92.3682 289.918L93.5781 297H94.8701L96.0801 287.047H94.8838L94.166 293.896L94.125 294.307L94.0498 293.903L92.8398 287.047H91.7393L90.5361 293.896L90.4609 294.307L90.4199 293.91L89.7021 287.047H88.499L89.709 297ZM98.8623 290.704V286.5H97.5977V297H98.8623V291.627C98.9535 291.481 99.056 291.349 99.1699 291.23C99.2884 291.107 99.416 291 99.5527 290.909C99.7259 290.791 99.915 290.7 100.12 290.636C100.325 290.572 100.542 290.54 100.77 290.54C101.048 290.535 101.294 290.574 101.508 290.656C101.722 290.734 101.9 290.852 102.041 291.012C102.173 291.158 102.273 291.342 102.342 291.565C102.41 291.784 102.444 292.039 102.444 292.331V297H103.709V292.345C103.709 291.848 103.647 291.42 103.524 291.06C103.406 290.695 103.235 290.394 103.012 290.157C102.788 289.92 102.517 289.747 102.198 289.638C101.884 289.524 101.533 289.467 101.146 289.467C100.849 289.471 100.569 289.515 100.305 289.597C100.045 289.679 99.8057 289.799 99.5869 289.959C99.4502 290.055 99.3203 290.166 99.1973 290.294C99.0742 290.417 98.9626 290.554 98.8623 290.704ZM109.273 297.137C109.993 297.137 110.597 296.993 111.085 296.706C111.577 296.414 111.946 296.082 112.192 295.708L111.42 295.106C111.188 295.407 110.896 295.649 110.545 295.831C110.194 296.013 109.793 296.104 109.342 296.104C109 296.104 108.688 296.041 108.405 295.913C108.123 295.785 107.881 295.61 107.681 295.387C107.485 295.177 107.33 294.936 107.216 294.662C107.106 294.389 107.036 294.072 107.004 293.712V293.664H112.288V293.097C112.288 292.582 112.222 292.103 112.09 291.661C111.962 291.219 111.766 290.834 111.502 290.506C111.238 290.182 110.905 289.929 110.504 289.747C110.107 289.56 109.643 289.467 109.109 289.467C108.686 289.467 108.271 289.553 107.865 289.727C107.464 289.9 107.106 290.148 106.792 290.472C106.473 290.8 106.218 291.201 106.026 291.675C105.835 292.144 105.739 292.677 105.739 293.274V293.562C105.739 294.076 105.826 294.553 105.999 294.99C106.172 295.428 106.414 295.806 106.724 296.125C107.034 296.444 107.405 296.692 107.838 296.87C108.275 297.048 108.754 297.137 109.273 297.137ZM109.109 290.506C109.433 290.506 109.711 290.565 109.943 290.684C110.18 290.802 110.376 290.957 110.531 291.148C110.686 291.34 110.807 291.568 110.894 291.832C110.98 292.092 111.023 292.336 111.023 292.563V292.625H107.045C107.095 292.283 107.182 291.982 107.305 291.723C107.432 291.458 107.587 291.235 107.77 291.053C107.952 290.875 108.157 290.741 108.385 290.649C108.613 290.554 108.854 290.506 109.109 290.506ZM119.261 289.467C118.723 289.467 118.242 289.585 117.818 289.822C117.399 290.055 117.039 290.374 116.738 290.779L116.731 290.595L116.677 289.604H115.474V297H116.745V292.256C116.827 292.028 116.93 291.823 117.053 291.641C117.18 291.454 117.328 291.297 117.497 291.169C117.684 291.023 117.903 290.914 118.153 290.841C118.404 290.763 118.684 290.725 118.994 290.725C119.236 290.725 119.466 290.738 119.685 290.766C119.908 290.788 120.143 290.827 120.389 290.882L120.56 289.645C120.432 289.59 120.241 289.547 119.985 289.515C119.735 289.483 119.493 289.467 119.261 289.467ZM126.09 297.137C126.81 297.137 127.414 296.993 127.901 296.706C128.394 296.414 128.763 296.082 129.009 295.708L128.236 295.106C128.004 295.407 127.712 295.649 127.361 295.831C127.01 296.013 126.609 296.104 126.158 296.104C125.816 296.104 125.504 296.041 125.222 295.913C124.939 295.785 124.698 295.61 124.497 295.387C124.301 295.177 124.146 294.936 124.032 294.662C123.923 294.389 123.852 294.072 123.82 293.712V293.664H129.104V293.097C129.104 292.582 129.038 292.103 128.906 291.661C128.779 291.219 128.583 290.834 128.318 290.506C128.054 290.182 127.721 289.929 127.32 289.747C126.924 289.56 126.459 289.467 125.926 289.467C125.502 289.467 125.087 289.553 124.682 289.727C124.281 289.9 123.923 290.148 123.608 290.472C123.289 290.8 123.034 291.201 122.843 291.675C122.651 292.144 122.556 292.677 122.556 293.274V293.562C122.556 294.076 122.642 294.553 122.815 294.99C122.989 295.428 123.23 295.806 123.54 296.125C123.85 296.444 124.221 296.692 124.654 296.87C125.092 297.048 125.57 297.137 126.09 297.137ZM125.926 290.506C126.249 290.506 126.527 290.565 126.76 290.684C126.997 290.802 127.193 290.957 127.348 291.148C127.503 291.34 127.623 291.568 127.71 291.832C127.797 292.092 127.84 292.336 127.84 292.563V292.625H123.861C123.911 292.283 123.998 291.982 124.121 291.723C124.249 291.458 124.404 291.235 124.586 291.053C124.768 290.875 124.973 290.741 125.201 290.649C125.429 290.554 125.671 290.506 125.926 290.506Z" fill="#9D9D9D"/>
<path d="M95.6289 346.694L95.6084 343.044H92.3818V344.11H94.4053L94.3916 346.346C94.2868 346.496 94.1569 346.619 94.002 346.715C93.847 346.806 93.6807 346.879 93.5029 346.934C93.3252 346.988 93.1406 347.025 92.9492 347.043C92.7624 347.061 92.5824 347.068 92.4092 347.063C92.1084 347.059 91.8395 347.007 91.6025 346.906C91.3656 346.801 91.1582 346.662 90.9805 346.489C90.7982 346.316 90.6432 346.116 90.5156 345.888C90.388 345.66 90.2832 345.418 90.2012 345.163C90.1191 344.908 90.0576 344.648 90.0166 344.384C89.9801 344.115 89.9596 343.855 89.9551 343.604V342.436C89.9551 342.189 89.971 341.934 90.0029 341.67C90.0348 341.406 90.0872 341.146 90.1602 340.891C90.2331 340.635 90.3265 340.394 90.4404 340.166C90.5544 339.934 90.6979 339.731 90.8711 339.558C91.0443 339.384 91.2471 339.248 91.4795 339.147C91.7119 339.043 91.9785 338.99 92.2793 338.99C92.5938 338.99 92.8695 339.04 93.1064 339.141C93.3434 339.236 93.5485 339.371 93.7217 339.544C93.8903 339.717 94.027 339.927 94.1318 340.173C94.2367 340.414 94.3141 340.679 94.3643 340.966H95.6152C95.5742 340.501 95.4648 340.082 95.2871 339.708C95.1094 339.33 94.8747 339.006 94.583 338.737C94.2913 338.473 93.9495 338.27 93.5576 338.129C93.1657 337.983 92.7373 337.91 92.2725 337.91C91.8532 337.91 91.4749 337.972 91.1377 338.095C90.8005 338.218 90.4997 338.384 90.2354 338.594C89.9665 338.808 89.7363 339.061 89.5449 339.353C89.3535 339.64 89.194 339.952 89.0664 340.289C88.9388 340.626 88.8431 340.979 88.7793 341.349C88.7201 341.713 88.6882 342.08 88.6836 342.449V343.604C88.6882 343.978 88.7246 344.35 88.793 344.719C88.8659 345.083 88.973 345.432 89.1143 345.765C89.251 346.102 89.4219 346.414 89.627 346.701C89.832 346.988 90.0713 347.237 90.3447 347.446C90.6182 347.66 90.9258 347.829 91.2676 347.952C91.6139 348.071 91.9922 348.132 92.4023 348.137C92.8079 348.141 93.1953 348.096 93.5645 348C93.9336 347.909 94.2777 347.768 94.5967 347.576C94.7835 347.467 94.9635 347.339 95.1367 347.193C95.3099 347.043 95.474 346.877 95.6289 346.694ZM102.444 340.467C101.907 340.467 101.426 340.585 101.002 340.822C100.583 341.055 100.223 341.374 99.9219 341.779L99.915 341.595L99.8604 340.604H98.6572V348H99.9287V343.256C100.011 343.028 100.113 342.823 100.236 342.641C100.364 342.454 100.512 342.297 100.681 342.169C100.868 342.023 101.086 341.914 101.337 341.841C101.588 341.763 101.868 341.725 102.178 341.725C102.419 341.725 102.649 341.738 102.868 341.766C103.091 341.788 103.326 341.827 103.572 341.882L103.743 340.645C103.616 340.59 103.424 340.547 103.169 340.515C102.918 340.483 102.677 340.467 102.444 340.467ZM105.65 344.233V344.384C105.65 344.917 105.728 345.411 105.883 345.867C106.038 346.323 106.261 346.719 106.553 347.057C106.84 347.394 107.191 347.658 107.605 347.85C108.025 348.041 108.496 348.137 109.021 348.137C109.54 348.137 110.007 348.041 110.422 347.85C110.837 347.658 111.19 347.394 111.481 347.057C111.769 346.719 111.99 346.323 112.145 345.867C112.299 345.411 112.377 344.917 112.377 344.384V344.233C112.377 343.7 112.299 343.206 112.145 342.75C111.99 342.29 111.769 341.891 111.481 341.554C111.19 341.216 110.834 340.952 110.415 340.761C110 340.565 109.531 340.467 109.007 340.467C108.487 340.467 108.02 340.565 107.605 340.761C107.191 340.952 106.84 341.216 106.553 341.554C106.261 341.891 106.038 342.29 105.883 342.75C105.728 343.206 105.65 343.7 105.65 344.233ZM106.915 344.384V344.233C106.915 343.873 106.958 343.529 107.045 343.201C107.132 342.868 107.264 342.577 107.441 342.326C107.615 342.076 107.831 341.877 108.091 341.731C108.351 341.581 108.656 341.506 109.007 341.506C109.358 341.506 109.663 341.581 109.923 341.731C110.187 341.877 110.408 342.076 110.586 342.326C110.759 342.577 110.889 342.868 110.976 343.201C111.067 343.529 111.112 343.873 111.112 344.233V344.384C111.112 344.748 111.069 345.097 110.982 345.43C110.896 345.758 110.766 346.047 110.593 346.298C110.415 346.549 110.194 346.747 109.93 346.893C109.67 347.038 109.367 347.111 109.021 347.111C108.67 347.111 108.362 347.038 108.098 346.893C107.833 346.747 107.615 346.549 107.441 346.298C107.264 346.047 107.132 345.758 107.045 345.43C106.958 345.097 106.915 344.748 106.915 344.384ZM119.288 348H120.437V340.604H119.165V345.908C119.097 346.068 119.01 346.216 118.905 346.353C118.805 346.485 118.687 346.599 118.55 346.694C118.386 346.813 118.192 346.906 117.969 346.975C117.745 347.038 117.493 347.07 117.21 347.07C116.968 347.07 116.754 347.038 116.567 346.975C116.385 346.911 116.23 346.799 116.103 346.64C115.975 346.485 115.879 346.275 115.815 346.011C115.752 345.746 115.72 345.414 115.72 345.013V340.604H114.455V344.999C114.455 345.55 114.514 346.024 114.633 346.421C114.756 346.813 114.929 347.136 115.152 347.392C115.376 347.647 115.645 347.836 115.959 347.959C116.273 348.077 116.624 348.137 117.012 348.137C117.495 348.137 117.921 348.036 118.29 347.836C118.659 347.631 118.967 347.346 119.213 346.981L119.288 348ZM122.815 350.844H124.08V347.289C124.171 347.389 124.269 347.483 124.374 347.569C124.479 347.651 124.59 347.727 124.709 347.795C124.905 347.904 125.124 347.989 125.365 348.048C125.611 348.107 125.876 348.137 126.158 348.137C126.623 348.137 127.035 348.041 127.396 347.85C127.76 347.658 128.065 347.394 128.312 347.057C128.558 346.719 128.744 346.323 128.872 345.867C129 345.407 129.063 344.912 129.063 344.384V344.24C129.063 343.689 129 343.183 128.872 342.723C128.744 342.258 128.558 341.859 128.312 341.526C128.065 341.194 127.76 340.934 127.396 340.747C127.031 340.56 126.612 340.467 126.138 340.467C125.869 340.467 125.616 340.496 125.379 340.556C125.146 340.61 124.935 340.692 124.743 340.802C124.606 340.875 124.479 340.964 124.36 341.068C124.242 341.169 124.132 341.283 124.032 341.41L123.971 340.604H122.815V350.844ZM127.799 344.24V344.384C127.799 344.744 127.758 345.088 127.676 345.416C127.598 345.744 127.478 346.034 127.313 346.284C127.149 346.535 126.94 346.735 126.685 346.886C126.429 347.032 126.126 347.104 125.775 347.104C125.557 347.104 125.356 347.077 125.174 347.022C124.996 346.968 124.834 346.893 124.688 346.797C124.561 346.715 124.447 346.615 124.347 346.496C124.246 346.378 124.158 346.25 124.08 346.113V342.552C124.167 342.397 124.267 342.256 124.381 342.128C124.495 342 124.625 341.893 124.771 341.807C124.903 341.72 125.051 341.654 125.215 341.608C125.383 341.563 125.566 341.54 125.762 341.54C126.117 341.54 126.423 341.613 126.678 341.759C126.933 341.905 127.145 342.101 127.313 342.347C127.478 342.597 127.598 342.887 127.676 343.215C127.758 343.538 127.799 343.88 127.799 344.24ZM145.907 344.384V344.24C145.907 343.853 145.875 343.486 145.812 343.14C145.748 342.789 145.654 342.47 145.531 342.183C145.413 341.927 145.276 341.697 145.121 341.492C144.966 341.283 144.791 341.105 144.595 340.959C144.376 340.804 144.132 340.683 143.863 340.597C143.594 340.51 143.3 340.467 142.981 340.467C142.726 340.467 142.489 340.492 142.271 340.542C142.052 340.592 141.851 340.665 141.669 340.761C141.523 340.838 141.386 340.932 141.259 341.041C141.131 341.146 141.015 341.264 140.91 341.396V337.5H139.646V348H140.808L140.869 347.159C140.951 347.264 141.038 347.36 141.129 347.446C141.22 347.533 141.316 347.613 141.416 347.686C141.626 347.831 141.86 347.943 142.12 348.021C142.384 348.098 142.676 348.137 142.995 348.137C143.273 348.137 143.531 348.103 143.768 348.034C144.009 347.966 144.23 347.87 144.431 347.747C144.709 347.569 144.946 347.346 145.142 347.077C145.342 346.804 145.504 346.496 145.627 346.154C145.718 345.895 145.786 345.617 145.832 345.32C145.882 345.02 145.907 344.707 145.907 344.384ZM144.643 344.24V344.384C144.643 344.603 144.629 344.817 144.602 345.026C144.574 345.236 144.531 345.432 144.472 345.614C144.399 345.856 144.301 346.075 144.178 346.271C144.055 346.466 143.902 346.628 143.72 346.756C143.583 346.856 143.428 346.934 143.255 346.988C143.082 347.038 142.89 347.063 142.681 347.063C142.462 347.063 142.261 347.036 142.079 346.981C141.897 346.922 141.733 346.84 141.587 346.735C141.441 346.631 141.311 346.51 141.197 346.373C141.088 346.232 140.992 346.079 140.91 345.915V342.682C140.988 342.518 141.081 342.367 141.19 342.23C141.304 342.089 141.434 341.966 141.58 341.861C141.721 341.761 141.883 341.684 142.065 341.629C142.248 341.57 142.448 341.54 142.667 341.54C142.868 341.54 143.05 341.563 143.214 341.608C143.378 341.654 143.526 341.718 143.658 341.8C143.85 341.914 144.011 342.071 144.144 342.271C144.276 342.472 144.383 342.693 144.465 342.935C144.524 343.131 144.567 343.34 144.595 343.563C144.627 343.782 144.643 344.008 144.643 344.24ZM148.642 350.987C148.974 350.987 149.268 350.926 149.523 350.803C149.779 350.68 150.002 350.527 150.193 350.345C150.385 350.162 150.547 349.964 150.679 349.75C150.815 349.536 150.927 349.333 151.014 349.142L154.767 340.604H153.352L151.444 345.402L151.096 346.271L150.768 345.375L148.737 340.604H147.322L150.508 347.651L150.002 348.636C149.956 348.727 149.893 348.843 149.811 348.984C149.733 349.126 149.64 349.262 149.53 349.395C149.416 349.527 149.286 349.641 149.141 349.736C148.999 349.832 148.842 349.88 148.669 349.88C148.605 349.88 148.516 349.875 148.402 349.866C148.293 349.862 148.181 349.855 148.067 349.846L147.862 350.878C147.944 350.896 148.065 350.919 148.225 350.946C148.384 350.974 148.523 350.987 148.642 350.987Z" fill="#9D9D9D"/>
<rect x="176" y="89" width="114" height="12" rx="6" fill="white" fill-opacity="0.15"/>
<rect x="176" y="286" width="106" height="12" rx="6" fill="white" fill-opacity="0.15"/>
<rect x="176" y="339" width="106" height="12" rx="6" fill="#5BF0BA" fill-opacity="0.6"/>
<rect x="176" y="359" width="106" height="12" rx="6" fill="white" fill-opacity="0.15"/>
<rect x="298" y="89" width="84" height="12" rx="6" fill="white" fill-opacity="0.15"/>
<rect x="288" y="286" width="45" height="12" rx="6" fill="white" fill-opacity="0.15"/>
<rect x="288" y="339" width="98" height="12" rx="6" fill="white" fill-opacity="0.15"/>
<rect x="288" y="359" width="98" height="12" rx="6" fill="white" fill-opacity="0.15"/>
<path d="M94.7266 138.604V137.531H90.584V134.127H95.417V133.047H89.3057V143H90.584V138.604H94.7266ZM102.444 135.467C101.907 135.467 101.426 135.585 101.002 135.822C100.583 136.055 100.223 136.374 99.9219 136.779L99.915 136.595L99.8604 135.604H98.6572V143H99.9287V138.256C100.011 138.028 100.113 137.823 100.236 137.641C100.364 137.454 100.512 137.297 100.681 137.169C100.868 137.023 101.086 136.914 101.337 136.841C101.588 136.763 101.868 136.725 102.178 136.725C102.419 136.725 102.649 136.738 102.868 136.766C103.091 136.788 103.326 136.827 103.572 136.882L103.743 135.645C103.616 135.59 103.424 135.547 103.169 135.515C102.918 135.483 102.677 135.467 102.444 135.467ZM105.65 139.233V139.384C105.65 139.917 105.728 140.411 105.883 140.867C106.038 141.323 106.261 141.719 106.553 142.057C106.84 142.394 107.191 142.658 107.605 142.85C108.025 143.041 108.496 143.137 109.021 143.137C109.54 143.137 110.007 143.041 110.422 142.85C110.837 142.658 111.19 142.394 111.481 142.057C111.769 141.719 111.99 141.323 112.145 140.867C112.299 140.411 112.377 139.917 112.377 139.384V139.233C112.377 138.7 112.299 138.206 112.145 137.75C111.99 137.29 111.769 136.891 111.481 136.554C111.19 136.216 110.834 135.952 110.415 135.761C110 135.565 109.531 135.467 109.007 135.467C108.487 135.467 108.02 135.565 107.605 135.761C107.191 135.952 106.84 136.216 106.553 136.554C106.261 136.891 106.038 137.29 105.883 137.75C105.728 138.206 105.65 138.7 105.65 139.233ZM106.915 139.384V139.233C106.915 138.873 106.958 138.529 107.045 138.201C107.132 137.868 107.264 137.577 107.441 137.326C107.615 137.076 107.831 136.877 108.091 136.731C108.351 136.581 108.656 136.506 109.007 136.506C109.358 136.506 109.663 136.581 109.923 136.731C110.187 136.877 110.408 137.076 110.586 137.326C110.759 137.577 110.889 137.868 110.976 138.201C111.067 138.529 111.112 138.873 111.112 139.233V139.384C111.112 139.748 111.069 140.097 110.982 140.43C110.896 140.758 110.766 141.047 110.593 141.298C110.415 141.549 110.194 141.747 109.93 141.893C109.67 142.038 109.367 142.111 109.021 142.111C108.67 142.111 108.362 142.038 108.098 141.893C107.833 141.747 107.615 141.549 107.441 141.298C107.264 141.047 107.132 140.758 107.045 140.43C106.958 140.097 106.915 139.748 106.915 139.384ZM114.995 135.604H113.86V143H115.063V137.114C115.091 137.041 115.125 136.973 115.166 136.909C115.212 136.845 115.264 136.788 115.323 136.738C115.401 136.674 115.494 136.627 115.604 136.595C115.717 136.558 115.85 136.54 116 136.54C116.137 136.54 116.255 136.558 116.355 136.595C116.46 136.627 116.547 136.679 116.615 136.752C116.688 136.829 116.741 136.927 116.772 137.046C116.809 137.164 116.827 137.301 116.827 137.456V143H118.03V137.463C118.03 137.436 118.03 137.413 118.03 137.395C118.03 137.372 118.03 137.349 118.03 137.326C118.044 137.212 118.071 137.11 118.112 137.019C118.153 136.923 118.21 136.839 118.283 136.766C118.356 136.697 118.447 136.643 118.557 136.602C118.666 136.561 118.796 136.54 118.946 136.54C119.088 136.54 119.211 136.558 119.315 136.595C119.425 136.631 119.516 136.686 119.589 136.759C119.657 136.836 119.71 136.934 119.746 137.053C119.783 137.171 119.801 137.308 119.801 137.463V143H121.004V137.477C121.004 137.121 120.963 136.813 120.881 136.554C120.799 136.289 120.68 136.075 120.525 135.911C120.384 135.765 120.211 135.656 120.006 135.583C119.801 135.506 119.571 135.467 119.315 135.467C119.129 135.471 118.955 135.496 118.796 135.542C118.641 135.588 118.5 135.649 118.372 135.727C118.272 135.795 118.178 135.875 118.092 135.966C118.005 136.057 117.93 136.155 117.866 136.26C117.816 136.146 117.755 136.043 117.682 135.952C117.613 135.861 117.536 135.784 117.449 135.72C117.331 135.638 117.192 135.576 117.032 135.535C116.877 135.49 116.702 135.467 116.506 135.467C116.16 135.471 115.863 135.547 115.617 135.692C115.376 135.838 115.18 136.041 115.029 136.301L114.995 135.604Z" fill="#9D9D9D"/>
<rect x="176" y="132" width="84" height="12" rx="6" fill="white" fill-opacity="0.15"/>
<rect x="176" y="152" width="95" height="12" rx="6" fill="#F04438" fill-opacity="0.6"/>
<rect x="266" y="132" width="66" height="12" rx="6" fill="white" fill-opacity="0.15"/>
<rect x="277" y="152" width="109" height="12" rx="6" fill="white" fill-opacity="0.15"/>
<rect x="392" y="152" width="36" height="12" rx="6" fill="white" fill-opacity="0.2"/>
<path d="M93.8584 200.047V206.972C93.8493 207.254 93.7992 207.523 93.708 207.778C93.6214 208.029 93.4961 208.25 93.332 208.441C93.1634 208.633 92.9606 208.785 92.7236 208.899C92.4867 209.009 92.2178 209.063 91.917 209.063C91.6253 209.063 91.361 209.016 91.124 208.92C90.8916 208.824 90.6911 208.688 90.5225 208.51C90.3538 208.337 90.2194 208.132 90.1191 207.895C90.0234 207.658 89.9688 207.4 89.9551 207.122H88.6699C88.7109 207.582 88.8158 207.999 88.9844 208.373C89.153 208.742 89.3786 209.057 89.6611 209.316C89.9391 209.581 90.2673 209.784 90.6455 209.925C91.0283 210.066 91.4521 210.137 91.917 210.137C92.3773 210.137 92.8011 210.059 93.1885 209.904C93.5804 209.745 93.9199 209.524 94.207 209.241C94.4941 208.963 94.7197 208.631 94.8838 208.243C95.0524 207.856 95.1413 207.432 95.1504 206.972V200.047H93.8584ZM97.2422 206.233V206.384C97.2422 206.917 97.3197 207.411 97.4746 207.867C97.6296 208.323 97.8529 208.719 98.1445 209.057C98.4316 209.394 98.7826 209.658 99.1973 209.85C99.6165 210.041 100.088 210.137 100.612 210.137C101.132 210.137 101.599 210.041 102.014 209.85C102.428 209.658 102.782 209.394 103.073 209.057C103.36 208.719 103.581 208.323 103.736 207.867C103.891 207.411 103.969 206.917 103.969 206.384V206.233C103.969 205.7 103.891 205.206 103.736 204.75C103.581 204.29 103.36 203.891 103.073 203.554C102.782 203.216 102.426 202.952 102.007 202.761C101.592 202.565 101.123 202.467 100.599 202.467C100.079 202.467 99.612 202.565 99.1973 202.761C98.7826 202.952 98.4316 203.216 98.1445 203.554C97.8529 203.891 97.6296 204.29 97.4746 204.75C97.3197 205.206 97.2422 205.7 97.2422 206.233ZM98.5068 206.384V206.233C98.5068 205.873 98.5501 205.529 98.6367 205.201C98.7233 204.868 98.8555 204.577 99.0332 204.326C99.2064 204.076 99.4229 203.877 99.6826 203.731C99.9424 203.581 100.248 203.506 100.599 203.506C100.95 203.506 101.255 203.581 101.515 203.731C101.779 203.877 102 204.076 102.178 204.326C102.351 204.577 102.481 204.868 102.567 205.201C102.659 205.529 102.704 205.873 102.704 206.233V206.384C102.704 206.748 102.661 207.097 102.574 207.43C102.488 207.758 102.358 208.047 102.185 208.298C102.007 208.549 101.786 208.747 101.521 208.893C101.262 209.038 100.959 209.111 100.612 209.111C100.261 209.111 99.9538 209.038 99.6895 208.893C99.4251 208.747 99.2064 208.549 99.0332 208.298C98.8555 208.047 98.7233 207.758 98.6367 207.43C98.5501 207.097 98.5068 206.748 98.5068 206.384ZM106.204 202.604V203.704H108.72V208.906H106.204V210H112.397V208.906H109.984V202.604H106.204ZM108.556 200.662C108.556 200.867 108.617 201.038 108.74 201.175C108.868 201.312 109.059 201.38 109.314 201.38C109.565 201.38 109.754 201.312 109.882 201.175C110.009 201.038 110.073 200.867 110.073 200.662C110.073 200.548 110.055 200.443 110.019 200.348C109.982 200.252 109.927 200.172 109.854 200.108C109.795 200.049 109.72 200.004 109.629 199.972C109.538 199.935 109.433 199.917 109.314 199.917C109.196 199.917 109.089 199.935 108.993 199.972C108.902 200.004 108.827 200.049 108.768 200.108C108.695 200.177 108.64 200.259 108.604 200.354C108.572 200.45 108.556 200.553 108.556 200.662ZM114.414 210H115.679V204.695C115.765 204.536 115.866 204.39 115.979 204.258C116.098 204.126 116.226 204.009 116.362 203.909C116.531 203.795 116.715 203.706 116.916 203.643C117.117 203.574 117.333 203.54 117.565 203.54C117.834 203.54 118.071 203.572 118.276 203.636C118.486 203.7 118.664 203.802 118.81 203.943C118.951 204.085 119.058 204.269 119.131 204.497C119.204 204.725 119.24 205.003 119.24 205.331V210H120.505V205.304C120.505 204.812 120.443 204.388 120.32 204.032C120.202 203.672 120.031 203.376 119.808 203.144C119.584 202.911 119.313 202.74 118.994 202.631C118.68 202.521 118.329 202.467 117.941 202.467C117.654 202.471 117.381 202.515 117.121 202.597C116.866 202.674 116.629 202.786 116.41 202.932C116.264 203.027 116.125 203.141 115.993 203.273C115.866 203.401 115.747 203.542 115.638 203.697L115.549 202.604H114.414V210Z" fill="#9D9D9D"/>
<rect x="176" y="199" width="48" height="12" rx="6" fill="white" fill-opacity="0.15"/>
<rect x="176" y="239" width="131" height="12" rx="6" fill="white" fill-opacity="0.15"/>
<rect x="176" y="219" width="95" height="12" rx="6" fill="white" fill-opacity="0.15"/>
<rect x="230" y="199" width="33" height="12" rx="6" fill="white" fill-opacity="0.15"/>
<rect x="279" y="219" width="76" height="12" rx="6" fill="#FEC84B" fill-opacity="0.6"/>
<rect x="363" y="219" width="71" height="12" rx="6" fill="white" fill-opacity="0.15"/>
<rect x="37" y="309" width="480" height="62" fill="url(#paint1_linear_294_251)"/>
</g>
<rect x="56.5" y="52.5" width="454" height="317" rx="7.5" stroke="#1B1B1B"/>
</g>
<defs>
<filter id="filter0_d_294_251" x="0" y="0" width="567" height="430" filterUnits="userSpaceOnUse" color-interpolation-filters="sRGB">
<feFlood flood-opacity="0" result="BackgroundImageFix"/>
<feColorMatrix in="SourceAlpha" type="matrix" values="0 0 0 0 0 0 0 0 0 0 0 0 0 0 0 0 0 0 127 0" result="hardAlpha"/>
<feOffset dy="4"/>
<feGaussianBlur stdDeviation="28"/>
<feComposite in2="hardAlpha" operator="out"/>
<feColorMatrix type="matrix" values="0 0 0 0 0 0 0 0 0 0 0 0 0 0 0 0 0 0 1 0"/>
<feBlend mode="normal" in2="BackgroundImageFix" result="effect1_dropShadow_294_251"/>
<feBlend mode="normal" in="SourceGraphic" in2="effect1_dropShadow_294_251" result="shape"/>
</filter>
<linearGradient id="paint0_linear_294_251" x1="56" y1="52" x2="502.093" y2="364.641" gradientUnits="userSpaceOnUse">
<stop stop-color="#101010"/>
<stop offset="0.732576" stop-color="#0A0A0A"/>
</linearGradient>
<linearGradient id="paint1_linear_294_251" x1="287" y1="371" x2="287" y2="288" gradientUnits="userSpaceOnUse">
<stop stop-color="#0A0A0A"/>
<stop offset="1" stop-color="#0A0A0A" stop-opacity="0"/>
</linearGradient>
<clipPath id="clip0_294_251">
<rect x="56" y="52" width="455" height="318" rx="8" fill="white"/>
</clipPath>
</defs>
</svg>
