<svg version="1.2" xmlns="http://www.w3.org/2000/svg" viewBox="0 0 80 20" width="80" height="20"><defs><clipPath clipPathUnits="userSpaceOnUse" id="cp1"><path d="m0 0h106v20h-106z"/></clipPath><linearGradient id="P" gradientUnits="userSpaceOnUse"/><linearGradient id="g1" x2="1" href="#P" gradientTransform="matrix(-4.066,-5.166,5.911,-4.652,21.558,12.73)"><stop stop-color="#6941c6"/><stop offset="1" stop-color="#9566ff"/></linearGradient><linearGradient id="g2" x2="1" href="#P" gradientTransform="matrix(4.305,10.109,-22.505,9.584,8.329,6.854)"><stop stop-color="#6941c6"/><stop offset="1" stop-color="#8d63e2"/></linearGradient><linearGradient id="g3" x2="1" href="#P" gradientTransform="matrix(3.703,3.346,-3.467,3.837,75.913,.526)"><stop stop-color="#6a42c7"/><stop offset="1" stop-color="#9667ff"/></linearGradient></defs><style>.a{fill:url(#g1)}.b{fill:url(#g2)}.c{fill:#fff}.d{fill:url(#g3)}</style><g clip-path="url(#cp1)"><path class="a" d="m13.5 19.6c-1.1 0-2-0.5-2-1.6 0-1.1 0.9-1.6 2-1.6v-13.3h3.1v13.3h2.1c1.3 0 2.1-1 2.1-2.8v-3.8c0-0.4 0.1-0.8 0.4-1.1 0.3-0.3 0.7-0.5 1.2-0.5h5.1c1 0 1.9 0.5 1.9 1.6 0 1.1-0.9 1.6-1.9 1.6-0.1 0-0.2 0-3.5 0v2.2c0 4.1-2.8 6-5.3 6z"/><path class="b" d="m12.6 4.2v-1h-1.2c-1.3 0-2.1 1-2.1 2.8v3.8c0 0.4-0.2 0.8-0.5 1.1-0.3 0.3-0.7 0.5-1.1 0.5-5.6 0-5.7 0-5.7 0-0.9-0.1-2-0.6-2-1.6 0-1.1 0.9-1.6 2-1.6h4.1v-2.2c0-4.1 2.8-6 5.3-6h6c1.1 0 2 0.5 2 1.6 0 1.1-0.9 1.6-1.9 1.6v1z"/><path fill-rule="evenodd" class="c" d="m38.1 19.1q-1.9 0-3.4-0.8-1.5-0.9-2.4-2.4-0.8-1.5-0.8-3.5 0-1.9 0.8-3.4 0.9-1.5 2.4-2.4 1.5-0.8 3.4-0.8 1.9 0 3.4 0.8 1.5 0.9 2.3 2.4 0.9 1.5 0.9 3.4 0 2-0.8 3.5-0.9 1.5-2.4 2.4-1.4 0.8-3.4 0.8zm0-2.2q1.3 0 2.2-0.5 1-0.6 1.5-1.6 0.6-1 0.6-2.4 0-1.3-0.6-2.3-0.5-1-1.5-1.6-0.9-0.6-2.2-0.6-1.2 0-2.2 0.6-1 0.6-1.5 1.6-0.6 1-0.6 2.3 0 1.4 0.6 2.4 0.5 1 1.5 1.6 1 0.5 2.2 0.5zm14.1-10.5q1.2-0.7 2.6-0.7 1.4 0 2.1 0.5 0.7 0.5 0.6 1.1-0.1 0.3-0.3 0.5-0.2 0.2-0.5 0.3-0.2 0-0.5-0.1-1.6-0.3-2.8 0-1.2 0.2-1.9 1-0.7 0.7-0.7 1.8v7q0 0.6-0.4 0.9-0.2 0.3-0.8 0.3-0.6 0-0.9-0.3-0.3-0.3-0.3-0.9v-10.7q0-0.6 0.3-0.9 0.3-0.3 0.9-0.3 0.6 0 0.8 0.3 0.4 0.3 0.4 0.9v0.4q0.5-0.6 1.4-1.1zm12.8 12.7q-1.9 0-3.4-0.9-1.5-0.9-2.3-2.4-0.9-1.5-0.9-3.4 0-1.9 0.8-3.4 0.8-1.5 2.2-2.3 1.4-0.9 3.1-0.9 1.5 0 2.7 0.6 1.2 0.6 2 1.6v-6.5q0-0.6 0.3-0.9 0.4-0.3 0.9-0.3 0.5 0 0.9 0.3 0.3 0.3 0.3 0.9v10.9q0 1.9-0.9 3.4-0.8 1.5-2.3 2.4-1.5 0.9-3.4 0.9zm0-2.2q1.2 0 2.2-0.5 1-0.6 1.5-1.7 0.6-1 0.6-2.3 0-1.3-0.6-2.3-0.5-1-1.5-1.6-1-0.6-2.2-0.6-1.2 0-2.2 0.6-0.9 0.6-1.5 1.6-0.6 1-0.6 2.3 0 1.3 0.6 2.3 0.6 1.1 1.5 1.7 1 0.5 2.2 0.5zm12.4 2.1q-0.5 0-0.9-0.3-0.3-0.4-0.3-0.9v-10.7q0-0.6 0.3-0.9 0.4-0.3 0.9-0.3 0.6 0 0.9 0.3 0.3 0.3 0.3 0.9v10.7q0 0.5-0.3 0.9-0.3 0.3-0.9 0.3zm0-15.3q-0.6 0-1.1-0.4-0.5-0.5-0.5-1.1 0-0.7 0.5-1.2 0.5-0.4 1.1-0.4 0.6 0 1.1 0.4 0.5 0.5 0.5 1.2 0 0.6-0.5 1.1-0.5 0.4-1.1 0.4z"/><path class="d" d="m77.4 0c1.2 0 2.1 0.6 2 1.9 0 1.4-2.1 2.9-2.1 2.9 0 0-2-1.7-2-3 0.1-1.3 1-1.8 2.1-1.8z"/></g></svg>