<svg xmlns="http://www.w3.org/2000/svg" width="108.992" height="60" viewBox="0 0 108.992 60">
  <g id="kima" transform="translate(-21.5 -155.9)">
    <path id="Path_1186" data-name="Path 1186" d="M83.934,179.261V156.935a1.039,1.039,0,0,0-1.054-1.035H22.554a1.051,1.051,0,0,0-1.054,1.035v49.537a1.039,1.039,0,0,0,1.054,1.035h98.42a1.051,1.051,0,0,0,1.054-1.035V180.3a1.039,1.039,0,0,0-1.054-1.035Z" fill="#28224b" opacity="0.5"/>
    <path id="Path_1187" data-name="Path 1187" d="M130.534,203.035A1.039,1.039,0,0,0,129.481,202H69.154a1.051,1.051,0,0,0-1.054,1.035V252.59a1.039,1.039,0,0,0,1.054,1.035h98.42a1.051,1.051,0,0,0,1.054-1.035V226.414a1.039,1.039,0,0,0-1.054-1.035H130.534Z" transform="translate(-38.135 -37.726)" fill="#fff"/>
    <path id="Path_1188" data-name="Path 1188" d="M129.438,187.635h-7.393v-7.321a1.039,1.039,0,0,0-1.054-1.035H92.4V165.328a1.039,1.039,0,0,0-1.054-1.035H83.952v-7.357A1.039,1.039,0,0,0,82.9,155.9H22.554a1.051,1.051,0,0,0-1.054,1.035v49.537a1.039,1.039,0,0,0,1.054,1.035h7.393v7.321A1.039,1.039,0,0,0,31,215.864h98.42a1.051,1.051,0,0,0,1.054-1.035V188.67A1.023,1.023,0,0,0,129.438,187.635ZM92.4,181.368h27.5v6.285H92.4ZM29.965,165.31v40.127H23.607V157.989h58.2v6.285H31.037A1.032,1.032,0,0,0,29.965,165.31Zm98.42,48.5H32.072V166.345H90.256v22.343a1.039,1.039,0,0,0,1.054,1.035H128.33v24.087Z" fill="#28224b"/>
    <path id="Path_1189" data-name="Path 1189" d="M198.548,277.263c1.017.509,1.417.708,1.417,1.435,0,.708-.436,1.144-1.926,1.144a25.385,25.385,0,0,1-2.561-.2.263.263,0,0,0-.291.272l-.163,1.344a.526.526,0,0,0,.436.636,16.807,16.807,0,0,0,2.779.272c3.179,0,4.414-1.2,4.414-3.524,0-1.853-.727-2.489-2.216-3.179l-1.163-.527c-1.035-.454-1.689-.672-1.689-1.453,0-.745.618-.945,1.635-.945s2.125.2,2.525.2c.291,0,.363-.127.381-.4l.182-1.108a.478.478,0,0,0-.291-.6,11.284,11.284,0,0,0-3.034-.327c-2.707,0-4.105.763-4.105,3.07a3.076,3.076,0,0,0,2.18,3.215Zm-11.717-1.926a.174.174,0,0,1-.2-.2c0-2,.708-2.525,2.016-2.525,1.126,0,1.762.527,1.762,2.525,0,.109-.036.2-.2.2Zm5.3,4.414a.4.4,0,0,0-.436-.363,16.64,16.64,0,0,1-2.688.363c-1.78,0-2.38-.563-2.38-2.143V277.5c0-.109.036-.127.163-.127h4.541c1.035,0,1.49-.436,1.49-1.471v-.836c0-3.252-1.362-4.8-4.233-4.8-3.052,0-4.668,1.326-4.668,5.9,0,4.523,1.508,5.94,4.868,5.94a7.8,7.8,0,0,0,3.179-.509.715.715,0,0,0,.4-.89Zm-16.113,1.871a.311.311,0,0,0,.327.309h2.035a.311.311,0,0,0,.327-.309v-7.648c0-.981.254-1.272,1.163-1.272.618,0,1.217.109,1.544.109a.377.377,0,0,0,.381-.4l.163-.963c.127-.563,0-.745-.509-.89a8.5,8.5,0,0,0-2.4-.272c-2.144,0-3.088.8-3.088,3.415Zm-5.4-11.153a.337.337,0,0,0-.381.381v6.9c0,1.544-.418,1.962-1.671,1.962-1.272,0-1.744-.418-1.744-1.962v-6.9a.337.337,0,0,0-.381-.381h-1.944a.337.337,0,0,0-.381.381v6.521c0,3.579,1.126,4.8,4.451,4.8,3.306,0,4.4-1.217,4.4-4.8v-6.521a.337.337,0,0,0-.381-.381Zm-14.278-2.452a.315.315,0,0,0-.327.327v10.245c0,2.307.708,3.542,3.815,3.542a5.34,5.34,0,0,0,1.762-.272.536.536,0,0,0,.436-.6l-.2-1.417c-.018-.2-.127-.345-.291-.345-.327,0-.6.109-1.326.109-1.253,0-1.49-.527-1.49-1.29V273.03a.229.229,0,0,1,.236-.236h2.2a.337.337,0,0,0,.381-.382v-1.562a.337.337,0,0,0-.381-.381h-2.035c-.309,0-.454-.055-.49-.381l-.2-1.544c-.055-.327-.182-.509-.545-.509H156.35Zm-12.334,13.606a.286.286,0,0,0,.309.309h2.089a.278.278,0,0,0,.309-.309v-6.975c0-1.617.581-1.944,1.817-1.944,1.272,0,1.78.309,1.78,1.944v6.975c0,.163.054.309.327.309h2.035a.291.291,0,0,0,.327-.309v-7.157c0-2.579-.654-4.2-4.487-4.2-3.851,0-4.523,1.635-4.523,4.2v7.157Zm-8.574-6.285a.174.174,0,0,1-.2-.2c0-2,.708-2.525,2.016-2.525,1.126,0,1.762.527,1.762,2.525,0,.109-.036.2-.2.2Zm5.286,4.414a.4.4,0,0,0-.436-.363,16.639,16.639,0,0,1-2.688.363c-1.78,0-2.38-.563-2.38-2.143V277.5c0-.109.036-.127.163-.127h4.541c1.035,0,1.49-.436,1.49-1.471v-.836c0-3.252-1.362-4.8-4.233-4.8-3.052,0-4.668,1.326-4.668,5.9,0,4.523,1.508,5.94,4.868,5.94a7.8,7.8,0,0,0,3.179-.509.715.715,0,0,0,.4-.89ZM127.5,270.469a.259.259,0,0,0-.291.291v6.521a.8.8,0,0,1-.272.654l-1.2,1.272a.316.316,0,0,1-.2.109c-.054,0-.109-.036-.182-.109l-1.2-1.272a.8.8,0,0,1-.272-.654V270.76a.259.259,0,0,0-.291-.291h-2.107a.259.259,0,0,0-.291.291v6.558a2.7,2.7,0,0,0,.945,2.162l2.18,2.107a1.843,1.843,0,0,0,1.253.581,1.877,1.877,0,0,0,1.253-.581l2.162-2.107a2.7,2.7,0,0,0,.945-2.162V270.76a.259.259,0,0,0-.291-.291Zm33.969-12.352a1.812,1.812,0,0,1-1.962,1.926c-1.072,0-1.49-.4-1.49-1.58,0-1.09.454-1.4,1.889-1.4h1.308a.222.222,0,0,1,.254.254Zm-5.25-5.431c.036.272.127.4.381.4a21.808,21.808,0,0,1,2.888-.345c1.508,0,1.926.436,1.926,1.889,0,.272-.109.345-.363.345h-1.78c-2.743,0-3.815,1.017-3.815,3.47,0,2.652.872,3.815,3.215,3.815a4.076,4.076,0,0,0,3.106-1.308c.036,0,.054.018.073.054l.236.817c.036.145.182.236.4.236h1.29a.311.311,0,0,0,.327-.309v-7.03c0-3.433-1.453-4.36-4.378-4.36a9.8,9.8,0,0,0-3.306.509.54.54,0,0,0-.381.727Zm-17.6,8.974a.337.337,0,0,0,.381.381h1.944a.337.337,0,0,0,.381-.381v-7.012c0-1.272.436-1.835,1.544-1.835,1,0,1.526.49,1.526,1.853v7.012a.337.337,0,0,0,.381.381h1.944a.337.337,0,0,0,.381-.381v-6.994c0-1.362.563-1.835,1.544-1.835,1.126,0,1.526.509,1.526,1.817v7.012a.337.337,0,0,0,.381.381H152.5a.337.337,0,0,0,.381-.381v-7.5c0-2.2-1-3.8-3.742-3.8-1.762,0-2.816.563-3.288,1.435-.054.109-.127.109-.218-.018-.618-.854-1.417-1.417-3.324-1.417-2.688,0-3.706,1.526-3.706,3.8ZM133.1,250.578a.337.337,0,0,0-.381.381v10.7c0,.272.127.381.327.381h2.035c.272,0,.381-.109.381-.381v-10.7a.337.337,0,0,0-.381-.381Zm-.073-4.16a.337.337,0,0,0-.381.381v2.053a.337.337,0,0,0,.381.381h2.125a.337.337,0,0,0,.381-.381V246.8a.337.337,0,0,0-.381-.381Zm-11.444,0a.337.337,0,0,0-.381.381v14.859a.337.337,0,0,0,.381.381h1.944a.337.337,0,0,0,.381-.381v-4.214a.182.182,0,0,1,.2-.2h1.108a1.483,1.483,0,0,1,1.508,1.144l1.108,3.124c.145.4.236.527.618.527h1.944c.272,0,.436-.163.327-.418l-1.381-4a3.846,3.846,0,0,0-1.617-2.325.18.18,0,0,1-.073-.254l2.107-3.942c.182-.345.127-.545-.363-.545H127.34c-.327,0-.509.091-.581.309l-1.635,3.742a.231.231,0,0,1-.2.145h-.8a.182.182,0,0,1-.2-.2v-7.775a.337.337,0,0,0-.381-.381h-1.962Z" transform="translate(-81.589 -74.06)" fill="#28224b"/>
  </g>
</svg>
