<svg width="29" height="16" viewBox="0 0 29 16" fill="none" xmlns="http://www.w3.org/2000/svg">
<path d="M16.4907 7.99986C16.4907 12.4181 12.9334 16 8.5451 16C4.15679 16 0.599731 12.4192 0.599731 7.99986C0.599731 3.58053 4.15706 0 8.5451 0C12.9331 0 16.4907 3.58161 16.4907 7.99986ZM25.2072 7.99986C25.2072 12.1591 23.4284 15.5305 21.2344 15.5305C19.0403 15.5305 17.2616 12.158 17.2616 7.99986C17.2616 3.84169 19.0403 0.469184 21.2344 0.469184C23.4284 0.469184 25.2072 3.84169 25.2072 7.99986ZM28.7723 7.99986C28.7723 11.7264 28.1467 14.747 27.375 14.747C26.6034 14.747 25.9777 11.7253 25.9777 7.99986C25.9777 4.27445 26.6034 1.25269 27.3753 1.25269C28.1472 1.25269 28.7723 4.27365 28.7723 7.99986Z" fill="#9D9D9D"/>
</svg>
