<svg xmlns="http://www.w3.org/2000/svg" width="100.335" height="60" viewBox="0 0 100.335 60">
  <g id="AWS" transform="translate(-1.668 -1.1)">
    <path id="Path_1167" data-name="Path 1167" d="M38.227,22.891a10.1,10.1,0,0,0,.367,2.97,17.862,17.862,0,0,0,1.068,2.4,1.452,1.452,0,0,1,.234.768,1.321,1.321,0,0,1-.634,1l-2.1,1.4a1.6,1.6,0,0,1-.868.3,1.535,1.535,0,0,1-1-.467,10.324,10.324,0,0,1-1.2-1.568c-.334-.567-.667-1.2-1.034-1.969a12.327,12.327,0,0,1-9.811,4.605,9.143,9.143,0,0,1-6.674-2.4A8.572,8.572,0,0,1,14.1,23.525a8.59,8.59,0,0,1,3.037-6.874,12.14,12.14,0,0,1,8.176-2.6,26.421,26.421,0,0,1,3.537.267c1.235.167,2.5.434,3.838.734V12.613c0-2.536-.534-4.3-1.568-5.339-1.068-1.034-2.87-1.535-5.439-1.535a15.183,15.183,0,0,0-3.6.434,26.59,26.59,0,0,0-3.6,1.135,9.575,9.575,0,0,1-1.168.434,2.047,2.047,0,0,1-.534.1c-.467,0-.7-.334-.7-1.034V5.171A2.112,2.112,0,0,1,16.3,4a2.5,2.5,0,0,1,.934-.7,19.212,19.212,0,0,1,4.2-1.5,20.232,20.232,0,0,1,5.206-.634c3.971,0,6.874.9,8.743,2.7,1.835,1.8,2.77,4.538,2.77,8.209V22.891ZM24.678,27.963a10.815,10.815,0,0,0,3.437-.6,7.436,7.436,0,0,0,3.17-2.136,5.3,5.3,0,0,0,1.135-2.136,11.98,11.98,0,0,0,.334-2.9v-1.4a27.868,27.868,0,0,0-3.07-.567,25.145,25.145,0,0,0-3.137-.2,7.693,7.693,0,0,0-4.972,1.335,4.651,4.651,0,0,0-1.635,3.838,4.658,4.658,0,0,0,1.235,3.537A4.628,4.628,0,0,0,24.678,27.963Zm26.8,3.6a1.863,1.863,0,0,1-1.268-.334,2.72,2.72,0,0,1-.7-1.3l-7.842-25.8a5.846,5.846,0,0,1-.3-1.335.732.732,0,0,1,.8-.834h3.27a1.85,1.85,0,0,1,1.3.334A2.73,2.73,0,0,1,47.4,3.6L53.01,25.694,58.216,3.6a2.341,2.341,0,0,1,.634-1.3,2.3,2.3,0,0,1,1.335-.334h2.67a2.008,2.008,0,0,1,1.335.334,2.249,2.249,0,0,1,.634,1.3L70.1,25.961,75.869,3.6a2.862,2.862,0,0,1,.667-1.3,2.177,2.177,0,0,1,1.3-.334h3.1a.742.742,0,0,1,.834.834,3.329,3.329,0,0,1-.067.534,4.749,4.749,0,0,1-.234.834l-8.042,25.8a2.559,2.559,0,0,1-.7,1.3,2.135,2.135,0,0,1-1.268.334h-2.87a2.008,2.008,0,0,1-1.335-.334,2.366,2.366,0,0,1-.634-1.335L61.453,8.408,56.314,29.9a2.6,2.6,0,0,1-.634,1.335,2.068,2.068,0,0,1-1.335.334Zm42.881.9a22.083,22.083,0,0,1-5.139-.6,15.181,15.181,0,0,1-3.838-1.335,2.4,2.4,0,0,1-1.034-.934,2.355,2.355,0,0,1-.2-.934v-1.7c0-.7.267-1.034.768-1.034a1.89,1.89,0,0,1,.6.1c.2.067.5.2.834.334a18.151,18.151,0,0,0,3.671,1.168,20.04,20.04,0,0,0,3.971.4,9,9,0,0,0,4.872-1.1,3.594,3.594,0,0,0,1.735-3.17,3.25,3.25,0,0,0-.9-2.336,8.373,8.373,0,0,0-3.37-1.735l-4.839-1.5a10.178,10.178,0,0,1-5.339-3.4,7.951,7.951,0,0,1-1.669-4.839,7.427,7.427,0,0,1,.9-3.7,8.58,8.58,0,0,1,2.4-2.736,10.591,10.591,0,0,1,3.471-1.735,14.544,14.544,0,0,1,4.2-.567,16.752,16.752,0,0,1,2.236.133c.768.1,1.468.234,2.169.367.667.167,1.3.334,1.9.534a7.283,7.283,0,0,1,1.4.6,2.886,2.886,0,0,1,1,.834,1.8,1.8,0,0,1,.3,1.1V6.239c0,.7-.267,1.068-.768,1.068a3.471,3.471,0,0,1-1.268-.4,15.266,15.266,0,0,0-6.407-1.3,8.613,8.613,0,0,0-4.438.934,3.222,3.222,0,0,0-1.568,2.97,3.151,3.151,0,0,0,1,2.369,9.968,9.968,0,0,0,3.671,1.835l4.739,1.5a10.149,10.149,0,0,1,5.172,3.2,7.551,7.551,0,0,1,1.535,4.672,8.579,8.579,0,0,1-.868,3.871,8.975,8.975,0,0,1-2.436,2.937,10.757,10.757,0,0,1-3.7,1.869A15.868,15.868,0,0,1,94.356,32.468Z" transform="translate(-8.283)" fill="#28224b"/>
    <g id="Group_261" data-name="Group 261" transform="translate(1.668 38.506)" opacity="0.5">
      <path id="Path_1168" data-name="Path 1168" d="M92.379,127.338c-10.979,8.109-26.93,12.414-40.645,12.414A73.532,73.532,0,0,1,2.112,120.831c-1.034-.934-.1-2.2,1.135-1.468A100.073,100.073,0,0,0,52.9,132.544,99.089,99.089,0,0,0,90.778,124.8C92.613,123.967,94.181,126,92.379,127.338Z" transform="translate(-1.668 -117.157)" fill="#28224b" fill-rule="evenodd"/>
      <path id="Path_1169" data-name="Path 1169" d="M259.74,118.167c-1.4-1.8-9.277-.868-12.848-.434-1.068.133-1.235-.8-.267-1.5,6.274-4.4,16.585-3.137,17.786-1.669,1.2,1.5-.334,11.813-6.207,16.752-.9.768-1.769.367-1.368-.634C258.171,127.377,261.141,119.936,259.74,118.167Z" transform="translate(-164.456 -113.192)" fill="#28224b" fill-rule="evenodd"/>
    </g>
  </g>
</svg>
