<svg width="48" height="48" viewBox="0 0 48 48" fill="none" xmlns="http://www.w3.org/2000/svg">
<g clip-path="url(#clip0_366_1066)">
<rect width="48" height="48" rx="12" fill="#6A41C6" fill-opacity="0.1"/>
<g filter="url(#filter0_f_366_1066)">
<path d="M12 24C12 17.3726 17.3726 12 24 12V12C30.6274 12 36 17.3726 36 24V24V24C36 30.6274 30.6274 36 24 36V36C17.3726 36 12 30.6274 12 24V24V24Z" fill="#601AFF" fill-opacity="0.3"/>
</g>
<path d="M18 24C18 20.6863 20.6863 18 24 18V18C27.3137 18 30 20.6863 30 24V24V24C30 27.3137 27.3137 30 24 30V30C20.6863 30 18 27.3137 18 24V24V24Z" fill="#9566FF"/>
</g>
<rect x="1" y="1" width="46" height="46" rx="11" stroke="#472D86" stroke-opacity="0.3" stroke-width="2"/>
<defs>
<filter id="filter0_f_366_1066" x="4" y="4" width="40" height="40" filterUnits="userSpaceOnUse" color-interpolation-filters="sRGB">
<feFlood flood-opacity="0" result="BackgroundImageFix"/>
<feBlend mode="normal" in="SourceGraphic" in2="BackgroundImageFix" result="shape"/>
<feGaussianBlur stdDeviation="4" result="effect1_foregroundBlur_366_1066"/>
</filter>
<clipPath id="clip0_366_1066">
<rect width="48" height="48" rx="12" fill="white"/>
</clipPath>
</defs>
</svg>
