<svg width="267" height="60" viewBox="0 0 267 60" fill="none" xmlns="http://www.w3.org/2000/svg">
<rect x="0.5" y="0.5" width="266" height="59" rx="3.5" stroke="#141414"/>
<path d="M24.1426 31.5977L23.6738 34H24.5117L24.9805 31.5977H26.457V30.7949H25.1328L25.5371 28.7207H26.8965V27.9062H25.6953L26.1758 25.4688H25.3379L24.8574 27.9062H23.3105L23.791 25.4688H22.9531L22.4727 27.9062H20.8027V28.7207H22.3145L21.9102 30.7949H20.3574V31.5977H21.7578L21.2891 34H22.127L22.5957 31.5977H24.1426ZM22.748 30.7949L23.1523 28.7207H24.6992L24.2949 30.7949H22.748ZM31.7422 34V25.4688H31.6543L28.4258 26.7109V27.7012L30.6582 26.8516V34H31.7422ZM42.5293 34H44.5039C44.9141 33.9961 45.2949 33.9473 45.6465 33.8535C46.002 33.7598 46.3203 33.625 46.6016 33.4492C46.8672 33.2812 47.1074 33.0781 47.3223 32.8398C47.5371 32.6016 47.7148 32.3359 47.8555 32.043C47.9922 31.7617 48.0957 31.4531 48.166 31.1172C48.2402 30.7812 48.2773 30.4258 48.2773 30.0508V29.4238C48.2734 29.0332 48.2324 28.666 48.1543 28.3223C48.0801 27.9785 47.9707 27.6621 47.8262 27.373C47.666 27.0332 47.4512 26.7344 47.1816 26.4766C46.916 26.2148 46.6094 26.0039 46.2617 25.8438C46.0117 25.7266 45.7383 25.6367 45.4414 25.5742C45.1484 25.5078 44.8359 25.4727 44.5039 25.4688H42.5293V34ZM43.6309 26.3594H44.5039C44.7734 26.3633 45.0215 26.3945 45.248 26.4531C45.4746 26.5078 45.6797 26.5859 45.8633 26.6875C46.1211 26.8242 46.3379 27.0039 46.5137 27.2266C46.6934 27.4453 46.8359 27.6914 46.9414 27.9648C47.0234 28.1758 47.084 28.4043 47.123 28.6504C47.166 28.8926 47.1895 29.1465 47.1934 29.4121V30.0508C47.1895 30.3125 47.168 30.5645 47.1289 30.8066C47.0898 31.0449 47.0312 31.2676 46.9531 31.4746C46.8633 31.7285 46.7402 31.959 46.584 32.166C46.4316 32.3691 46.25 32.541 46.0391 32.6816C45.8398 32.8184 45.6113 32.9238 45.3535 32.998C45.0996 33.0723 44.8164 33.1113 44.5039 33.1152H43.6309V26.3594ZM54.0137 34H55.1445V33.9062C55.0742 33.7305 55.0195 33.5254 54.9805 33.291C54.9414 33.0527 54.9219 32.8281 54.9219 32.6172V29.6699C54.9219 29.3145 54.8574 29.0039 54.7285 28.7383C54.5996 28.4727 54.4238 28.25 54.2012 28.0703C53.9746 27.8945 53.707 27.7637 53.3984 27.6777C53.0898 27.5879 52.7559 27.543 52.3965 27.543C52.002 27.543 51.6484 27.5977 51.3359 27.707C51.0273 27.8164 50.7656 27.959 50.5508 28.1348C50.332 28.3145 50.1641 28.5156 50.0469 28.7383C49.9336 28.9609 49.875 29.1875 49.8711 29.418H50.9609C50.9609 29.2852 50.9922 29.1582 51.0547 29.0371C51.1211 28.9121 51.2129 28.8047 51.3301 28.7148C51.4473 28.625 51.5898 28.5527 51.7578 28.498C51.9297 28.4434 52.123 28.416 52.3379 28.416C52.5684 28.416 52.7754 28.4453 52.959 28.5039C53.1465 28.5625 53.3047 28.6445 53.4336 28.75C53.5625 28.8594 53.6621 28.9902 53.7324 29.1426C53.8027 29.2949 53.8379 29.4668 53.8379 29.6582V30.1562H52.6543C52.2129 30.1562 51.8125 30.1992 51.4531 30.2852C51.0977 30.3711 50.793 30.5 50.5391 30.6719C50.2852 30.8477 50.0879 31.0664 49.9473 31.3281C49.8105 31.5898 49.7422 31.8945 49.7422 32.2422C49.7422 32.5078 49.793 32.7559 49.8945 32.9863C50 33.2129 50.1484 33.4082 50.3398 33.5723C50.5273 33.7402 50.7559 33.873 51.0254 33.9707C51.2988 34.0684 51.6035 34.1172 51.9395 34.1172C52.1465 34.1172 52.3418 34.0957 52.5254 34.0527C52.709 34.0098 52.8828 33.9512 53.0469 33.877C53.207 33.8027 53.3535 33.7168 53.4863 33.6191C53.623 33.5215 53.7461 33.418 53.8555 33.3086C53.8672 33.4414 53.8848 33.5703 53.9082 33.6953C53.9355 33.8164 53.9707 33.918 54.0137 34ZM52.0977 33.1738C51.8867 33.1738 51.7012 33.1465 51.541 33.0918C51.3809 33.0371 51.248 32.9609 51.1426 32.8633C51.0371 32.7695 50.957 32.6562 50.9023 32.5234C50.8516 32.3906 50.8262 32.2461 50.8262 32.0898C50.8262 31.9258 50.8555 31.7793 50.9141 31.6504C50.9766 31.5215 51.0664 31.4102 51.1836 31.3164C51.3477 31.1836 51.5684 31.0859 51.8457 31.0234C52.127 30.957 52.4551 30.9238 52.8301 30.9238H53.8379V32.207C53.7754 32.332 53.6895 32.4531 53.5801 32.5703C53.4707 32.6836 53.3418 32.7852 53.1934 32.875C53.041 32.9648 52.873 33.0371 52.6895 33.0918C52.5059 33.1465 52.3086 33.1738 52.0977 33.1738ZM59.6211 26.125H58.5312V27.6602H56.8672V28.498H58.5312V31.9434C58.5312 32.334 58.582 32.668 58.6836 32.9453C58.7891 33.2188 58.9316 33.4414 59.1113 33.6133C59.291 33.7891 59.502 33.918 59.7441 34C59.9902 34.0781 60.2539 34.1172 60.5352 34.1172C60.7031 34.1172 60.8711 34.1094 61.0391 34.0938C61.2109 34.0781 61.373 34.0547 61.5254 34.0234C61.6777 33.9961 61.8184 33.9629 61.9473 33.9238C62.0762 33.8809 62.1855 33.832 62.2754 33.7773L62.123 33.0098C62.0566 33.0254 61.9707 33.0449 61.8652 33.0684C61.7637 33.0879 61.6543 33.1074 61.5371 33.127C61.416 33.1465 61.293 33.1641 61.168 33.1797C61.043 33.1914 60.9219 33.1973 60.8047 33.1973C60.6445 33.1973 60.4922 33.1777 60.3477 33.1387C60.207 33.0996 60.082 33.0312 59.9727 32.9336C59.8633 32.8398 59.7773 32.7129 59.7148 32.5527C59.6523 32.3926 59.6211 32.1895 59.6211 31.9434V28.498H62.0352V27.6602H59.6211V26.125ZM68.4277 34H69.5586V33.9062C69.4883 33.7305 69.4336 33.5254 69.3945 33.291C69.3555 33.0527 69.3359 32.8281 69.3359 32.6172V29.6699C69.3359 29.3145 69.2715 29.0039 69.1426 28.7383C69.0137 28.4727 68.8379 28.25 68.6152 28.0703C68.3887 27.8945 68.1211 27.7637 67.8125 27.6777C67.5039 27.5879 67.1699 27.543 66.8105 27.543C66.416 27.543 66.0625 27.5977 65.75 27.707C65.4414 27.8164 65.1797 27.959 64.9648 28.1348C64.7461 28.3145 64.5781 28.5156 64.4609 28.7383C64.3477 28.9609 64.2891 29.1875 64.2852 29.418H65.375C65.375 29.2852 65.4062 29.1582 65.4688 29.0371C65.5352 28.9121 65.627 28.8047 65.7441 28.7148C65.8613 28.625 66.0039 28.5527 66.1719 28.498C66.3438 28.4434 66.5371 28.416 66.752 28.416C66.9824 28.416 67.1895 28.4453 67.373 28.5039C67.5605 28.5625 67.7188 28.6445 67.8477 28.75C67.9766 28.8594 68.0762 28.9902 68.1465 29.1426C68.2168 29.2949 68.252 29.4668 68.252 29.6582V30.1562H67.0684C66.627 30.1562 66.2266 30.1992 65.8672 30.2852C65.5117 30.3711 65.207 30.5 64.9531 30.6719C64.6992 30.8477 64.502 31.0664 64.3613 31.3281C64.2246 31.5898 64.1562 31.8945 64.1562 32.2422C64.1562 32.5078 64.207 32.7559 64.3086 32.9863C64.4141 33.2129 64.5625 33.4082 64.7539 33.5723C64.9414 33.7402 65.1699 33.873 65.4395 33.9707C65.7129 34.0684 66.0176 34.1172 66.3535 34.1172C66.5605 34.1172 66.7559 34.0957 66.9395 34.0527C67.123 34.0098 67.2969 33.9512 67.4609 33.877C67.6211 33.8027 67.7676 33.7168 67.9004 33.6191C68.0371 33.5215 68.1602 33.418 68.2695 33.3086C68.2812 33.4414 68.2988 33.5703 68.3223 33.6953C68.3496 33.8164 68.3848 33.918 68.4277 34ZM66.5117 33.1738C66.3008 33.1738 66.1152 33.1465 65.9551 33.0918C65.7949 33.0371 65.6621 32.9609 65.5566 32.8633C65.4512 32.7695 65.3711 32.6562 65.3164 32.5234C65.2656 32.3906 65.2402 32.2461 65.2402 32.0898C65.2402 31.9258 65.2695 31.7793 65.3281 31.6504C65.3906 31.5215 65.4805 31.4102 65.5977 31.3164C65.7617 31.1836 65.9824 31.0859 66.2598 31.0234C66.541 30.957 66.8691 30.9238 67.2441 30.9238H68.252V32.207C68.1895 32.332 68.1035 32.4531 67.9941 32.5703C67.8848 32.6836 67.7559 32.7852 67.6074 32.875C67.4551 32.9648 67.2871 33.0371 67.1035 33.0918C66.9199 33.1465 66.7227 33.1738 66.5117 33.1738ZM82.8887 32.3184C82.8887 32.4199 82.8691 32.5156 82.8301 32.6055C82.791 32.6953 82.7344 32.7773 82.6602 32.8516C82.5391 32.9727 82.3711 33.0684 82.1562 33.1387C81.9414 33.2051 81.6895 33.2383 81.4004 33.2383C81.2168 33.2383 81.0312 33.2188 80.8438 33.1797C80.6562 33.1406 80.4863 33.0742 80.334 32.9805C80.1777 32.8867 80.0469 32.7637 79.9414 32.6113C79.8398 32.459 79.7812 32.2715 79.7656 32.0488H78.6816C78.6816 32.3184 78.7422 32.5781 78.8633 32.8281C78.9883 33.0781 79.168 33.2969 79.4023 33.4844C79.6328 33.6758 79.916 33.8301 80.252 33.9473C80.5879 34.0605 80.9707 34.1172 81.4004 34.1172C81.7754 34.1172 82.1211 34.0723 82.4375 33.9824C82.7539 33.8926 83.0254 33.7656 83.252 33.6016C83.4785 33.4375 83.6543 33.2402 83.7793 33.0098C83.9082 32.7793 83.9727 32.5234 83.9727 32.2422C83.9727 31.9805 83.916 31.75 83.8027 31.5508C83.6934 31.3516 83.5332 31.1758 83.3223 31.0234C83.1113 30.875 82.8516 30.748 82.543 30.6426C82.2344 30.5332 81.8848 30.4375 81.4941 30.3555C81.1973 30.2969 80.9512 30.2363 80.7559 30.1738C80.5645 30.1113 80.4121 30.041 80.2988 29.9629C80.1816 29.8848 80.0996 29.7969 80.0527 29.6992C80.0059 29.6016 79.9824 29.4902 79.9824 29.3652C79.9824 29.2441 80.0117 29.127 80.0703 29.0137C80.1289 28.9004 80.2168 28.8008 80.334 28.7148C80.4473 28.6289 80.5898 28.5605 80.7617 28.5098C80.9375 28.459 81.1406 28.4336 81.3711 28.4336C81.5938 28.4336 81.793 28.4648 81.9688 28.5273C82.1484 28.5898 82.3008 28.6719 82.4258 28.7734C82.5508 28.875 82.6484 28.9922 82.7188 29.125C82.7891 29.2539 82.8242 29.3867 82.8242 29.5234H83.9082C83.9082 29.2461 83.8477 28.9883 83.7266 28.75C83.6094 28.5078 83.4414 28.2969 83.2227 28.1172C83.0039 27.9375 82.7383 27.7969 82.4258 27.6953C82.1133 27.5938 81.7617 27.543 81.3711 27.543C81.0078 27.543 80.6738 27.5918 80.3691 27.6895C80.0684 27.7871 79.8086 27.9199 79.5898 28.0879C79.3711 28.2559 79.2012 28.4531 79.0801 28.6797C78.959 28.9023 78.8984 29.1426 78.8984 29.4004C78.8984 29.6621 78.957 29.8926 79.0742 30.0918C79.1914 30.2871 79.3574 30.457 79.5723 30.6016C79.7832 30.75 80.0371 30.877 80.334 30.9824C80.6348 31.0879 80.9668 31.1777 81.3301 31.252C81.627 31.3105 81.875 31.377 82.0742 31.4512C82.2734 31.5215 82.4336 31.5996 82.5547 31.6855C82.6758 31.7715 82.7617 31.8672 82.8125 31.9727C82.8633 32.0742 82.8887 32.1895 82.8887 32.3184ZM88.4492 26.125H87.3594V27.6602H85.6953V28.498H87.3594V31.9434C87.3594 32.334 87.4102 32.668 87.5117 32.9453C87.6172 33.2188 87.7598 33.4414 87.9395 33.6133C88.1191 33.7891 88.3301 33.918 88.5723 34C88.8184 34.0781 89.082 34.1172 89.3633 34.1172C89.5312 34.1172 89.6992 34.1094 89.8672 34.0938C90.0391 34.0781 90.2012 34.0547 90.3535 34.0234C90.5059 33.9961 90.6465 33.9629 90.7754 33.9238C90.9043 33.8809 91.0137 33.832 91.1035 33.7773L90.9512 33.0098C90.8848 33.0254 90.7988 33.0449 90.6934 33.0684C90.5918 33.0879 90.4824 33.1074 90.3652 33.127C90.2441 33.1465 90.1211 33.1641 89.9961 33.1797C89.8711 33.1914 89.75 33.1973 89.6328 33.1973C89.4727 33.1973 89.3203 33.1777 89.1758 33.1387C89.0352 33.0996 88.9102 33.0312 88.8008 32.9336C88.6914 32.8398 88.6055 32.7129 88.543 32.5527C88.4805 32.3926 88.4492 32.1895 88.4492 31.9434V28.498H90.8633V27.6602H88.4492V26.125ZM97.2559 34H98.3867V33.9062C98.3164 33.7305 98.2617 33.5254 98.2227 33.291C98.1836 33.0527 98.1641 32.8281 98.1641 32.6172V29.6699C98.1641 29.3145 98.0996 29.0039 97.9707 28.7383C97.8418 28.4727 97.666 28.25 97.4434 28.0703C97.2168 27.8945 96.9492 27.7637 96.6406 27.6777C96.332 27.5879 95.998 27.543 95.6387 27.543C95.2441 27.543 94.8906 27.5977 94.5781 27.707C94.2695 27.8164 94.0078 27.959 93.793 28.1348C93.5742 28.3145 93.4062 28.5156 93.2891 28.7383C93.1758 28.9609 93.1172 29.1875 93.1133 29.418H94.2031C94.2031 29.2852 94.2344 29.1582 94.2969 29.0371C94.3633 28.9121 94.4551 28.8047 94.5723 28.7148C94.6895 28.625 94.832 28.5527 95 28.498C95.1719 28.4434 95.3652 28.416 95.5801 28.416C95.8105 28.416 96.0176 28.4453 96.2012 28.5039C96.3887 28.5625 96.5469 28.6445 96.6758 28.75C96.8047 28.8594 96.9043 28.9902 96.9746 29.1426C97.0449 29.2949 97.0801 29.4668 97.0801 29.6582V30.1562H95.8965C95.4551 30.1562 95.0547 30.1992 94.6953 30.2852C94.3398 30.3711 94.0352 30.5 93.7812 30.6719C93.5273 30.8477 93.3301 31.0664 93.1895 31.3281C93.0527 31.5898 92.9844 31.8945 92.9844 32.2422C92.9844 32.5078 93.0352 32.7559 93.1367 32.9863C93.2422 33.2129 93.3906 33.4082 93.582 33.5723C93.7695 33.7402 93.998 33.873 94.2676 33.9707C94.541 34.0684 94.8457 34.1172 95.1816 34.1172C95.3887 34.1172 95.584 34.0957 95.7676 34.0527C95.9512 34.0098 96.125 33.9512 96.2891 33.877C96.4492 33.8027 96.5957 33.7168 96.7285 33.6191C96.8652 33.5215 96.9883 33.418 97.0977 33.3086C97.1094 33.4414 97.127 33.5703 97.1504 33.6953C97.1777 33.8164 97.2129 33.918 97.2559 34ZM95.3398 33.1738C95.1289 33.1738 94.9434 33.1465 94.7832 33.0918C94.623 33.0371 94.4902 32.9609 94.3848 32.8633C94.2793 32.7695 94.1992 32.6562 94.1445 32.5234C94.0938 32.3906 94.0684 32.2461 94.0684 32.0898C94.0684 31.9258 94.0977 31.7793 94.1562 31.6504C94.2188 31.5215 94.3086 31.4102 94.4258 31.3164C94.5898 31.1836 94.8105 31.0859 95.0879 31.0234C95.3691 30.957 95.6973 30.9238 96.0723 30.9238H97.0801V32.207C97.0176 32.332 96.9316 32.4531 96.8223 32.5703C96.7129 32.6836 96.584 32.7852 96.4355 32.875C96.2832 32.9648 96.1152 33.0371 95.9316 33.0918C95.748 33.1465 95.5508 33.1738 95.3398 33.1738ZM102.863 26.125H101.773V27.6602H100.109V28.498H101.773V31.9434C101.773 32.334 101.824 32.668 101.926 32.9453C102.031 33.2188 102.174 33.4414 102.354 33.6133C102.533 33.7891 102.744 33.918 102.986 34C103.232 34.0781 103.496 34.1172 103.777 34.1172C103.945 34.1172 104.113 34.1094 104.281 34.0938C104.453 34.0781 104.615 34.0547 104.768 34.0234C104.92 33.9961 105.061 33.9629 105.189 33.9238C105.318 33.8809 105.428 33.832 105.518 33.7773L105.365 33.0098C105.299 33.0254 105.213 33.0449 105.107 33.0684C105.006 33.0879 104.896 33.1074 104.779 33.127C104.658 33.1465 104.535 33.1641 104.41 33.1797C104.285 33.1914 104.164 33.1973 104.047 33.1973C103.887 33.1973 103.734 33.1777 103.59 33.1387C103.449 33.0996 103.324 33.0312 103.215 32.9336C103.105 32.8398 103.02 32.7129 102.957 32.5527C102.895 32.3926 102.863 32.1895 102.863 31.9434V28.498H105.277V27.6602H102.863V26.125ZM111.682 34H112.666V27.6602H111.576V32.207C111.518 32.3438 111.443 32.4707 111.354 32.5879C111.268 32.7012 111.166 32.7988 111.049 32.8809C110.908 32.9824 110.742 33.0625 110.551 33.1211C110.359 33.1758 110.143 33.2031 109.9 33.2031C109.693 33.2031 109.51 33.1758 109.35 33.1211C109.193 33.0664 109.061 32.9707 108.951 32.834C108.842 32.7012 108.76 32.5215 108.705 32.2949C108.65 32.0684 108.623 31.7832 108.623 31.4395V27.6602H107.539V31.4277C107.539 31.9004 107.59 32.3066 107.691 32.6465C107.797 32.9824 107.945 33.2598 108.137 33.4785C108.328 33.6973 108.559 33.8594 108.828 33.9648C109.098 34.0664 109.398 34.1172 109.73 34.1172C110.145 34.1172 110.51 34.0312 110.826 33.8594C111.143 33.6836 111.406 33.4395 111.617 33.127L111.682 34ZM118.924 32.3184C118.924 32.4199 118.904 32.5156 118.865 32.6055C118.826 32.6953 118.77 32.7773 118.695 32.8516C118.574 32.9727 118.406 33.0684 118.191 33.1387C117.977 33.2051 117.725 33.2383 117.436 33.2383C117.252 33.2383 117.066 33.2188 116.879 33.1797C116.691 33.1406 116.521 33.0742 116.369 32.9805C116.213 32.8867 116.082 32.7637 115.977 32.6113C115.875 32.459 115.816 32.2715 115.801 32.0488H114.717C114.717 32.3184 114.777 32.5781 114.898 32.8281C115.023 33.0781 115.203 33.2969 115.438 33.4844C115.668 33.6758 115.951 33.8301 116.287 33.9473C116.623 34.0605 117.006 34.1172 117.436 34.1172C117.811 34.1172 118.156 34.0723 118.473 33.9824C118.789 33.8926 119.061 33.7656 119.287 33.6016C119.514 33.4375 119.689 33.2402 119.814 33.0098C119.943 32.7793 120.008 32.5234 120.008 32.2422C120.008 31.9805 119.951 31.75 119.838 31.5508C119.729 31.3516 119.568 31.1758 119.357 31.0234C119.146 30.875 118.887 30.748 118.578 30.6426C118.27 30.5332 117.92 30.4375 117.529 30.3555C117.232 30.2969 116.986 30.2363 116.791 30.1738C116.6 30.1113 116.447 30.041 116.334 29.9629C116.217 29.8848 116.135 29.7969 116.088 29.6992C116.041 29.6016 116.018 29.4902 116.018 29.3652C116.018 29.2441 116.047 29.127 116.105 29.0137C116.164 28.9004 116.252 28.8008 116.369 28.7148C116.482 28.6289 116.625 28.5605 116.797 28.5098C116.973 28.459 117.176 28.4336 117.406 28.4336C117.629 28.4336 117.828 28.4648 118.004 28.5273C118.184 28.5898 118.336 28.6719 118.461 28.7734C118.586 28.875 118.684 28.9922 118.754 29.125C118.824 29.2539 118.859 29.3867 118.859 29.5234H119.943C119.943 29.2461 119.883 28.9883 119.762 28.75C119.645 28.5078 119.477 28.2969 119.258 28.1172C119.039 27.9375 118.773 27.7969 118.461 27.6953C118.148 27.5938 117.797 27.543 117.406 27.543C117.043 27.543 116.709 27.5918 116.404 27.6895C116.104 27.7871 115.844 27.9199 115.625 28.0879C115.406 28.2559 115.236 28.4531 115.115 28.6797C114.994 28.9023 114.934 29.1426 114.934 29.4004C114.934 29.6621 114.992 29.8926 115.109 30.0918C115.227 30.2871 115.393 30.457 115.607 30.6016C115.818 30.75 116.072 30.877 116.369 30.9824C116.67 31.0879 117.002 31.1777 117.365 31.252C117.662 31.3105 117.91 31.377 118.109 31.4512C118.309 31.5215 118.469 31.5996 118.59 31.6855C118.711 31.7715 118.797 31.8672 118.848 31.9727C118.898 32.0742 118.924 32.1895 118.924 32.3184Z" fill="#9D9D9D"/>
<g filter="url(#filter0_b_357_1702)">
<rect x="133" y="14" width="117" height="32" rx="12" fill="#5BF0BA" fill-opacity="0.1"/>
<rect x="133.5" y="14.5" width="116" height="31" rx="11.5" stroke="url(#paint0_linear_357_1702)" stroke-opacity="0.3"/>
</g>
<path d="M157.875 25.6254L149.125 34.375L144.75 30.0004" stroke="#5BF0BA" stroke-width="2" stroke-linecap="round" stroke-linejoin="round"/>
<path d="M174.484 32.8438C174.484 33.0781 174.434 33.2812 174.332 33.4531C174.23 33.6211 174.1 33.7598 173.939 33.8691C173.779 33.9824 173.596 34.0664 173.389 34.1211C173.186 34.1719 172.979 34.1973 172.768 34.1973C172.502 34.1973 172.256 34.1621 172.029 34.0918C171.807 34.0176 171.609 33.9082 171.438 33.7637C171.266 33.623 171.125 33.4512 171.016 33.248C170.906 33.041 170.834 32.8047 170.799 32.5391H169.691C169.703 32.9062 169.783 33.2402 169.932 33.541C170.084 33.8379 170.289 34.0977 170.547 34.3203C170.836 34.5781 171.176 34.7754 171.566 34.9121C171.961 35.0488 172.361 35.1172 172.768 35.1172C173.107 35.1172 173.447 35.0703 173.787 34.9766C174.127 34.8789 174.432 34.7344 174.701 34.543C174.971 34.3555 175.189 34.1191 175.357 33.834C175.529 33.5488 175.615 33.2148 175.615 32.832C175.615 32.4531 175.535 32.1191 175.375 31.8301C175.219 31.541 175.012 31.2969 174.754 31.0977C174.492 30.8828 174.203 30.707 173.887 30.5703C173.57 30.4297 173.254 30.3105 172.938 30.2129C172.746 30.1543 172.541 30.0859 172.322 30.0078C172.107 29.9297 171.908 29.832 171.725 29.7148C171.537 29.5977 171.383 29.4551 171.262 29.2871C171.141 29.1152 171.078 28.9062 171.074 28.6602C171.074 28.4336 171.119 28.2344 171.209 28.0625C171.303 27.8906 171.428 27.7461 171.584 27.6289C171.736 27.5117 171.91 27.4238 172.105 27.3652C172.305 27.3066 172.508 27.2773 172.715 27.2773C172.973 27.2773 173.203 27.3184 173.406 27.4004C173.613 27.4785 173.791 27.5898 173.939 27.7344C174.088 27.8789 174.207 28.0527 174.297 28.2559C174.387 28.4551 174.447 28.6777 174.479 28.9238H175.592C175.584 28.5332 175.5 28.1797 175.34 27.8633C175.18 27.5469 174.967 27.2773 174.701 27.0547C174.436 26.832 174.131 26.6602 173.787 26.5391C173.443 26.4141 173.086 26.3516 172.715 26.3516C172.379 26.3516 172.045 26.4043 171.713 26.5098C171.381 26.6113 171.084 26.7617 170.822 26.9609C170.561 27.1602 170.348 27.4043 170.184 27.6934C170.023 27.9824 169.943 28.3105 169.943 28.6777C169.943 29.0449 170.023 29.3652 170.184 29.6387C170.348 29.9082 170.559 30.1426 170.816 30.3418C171.07 30.5371 171.352 30.7051 171.66 30.8457C171.973 30.9824 172.279 31.0996 172.58 31.1973C172.787 31.2637 173.002 31.3379 173.225 31.4199C173.451 31.502 173.658 31.6035 173.846 31.7246C174.033 31.8496 174.186 32.002 174.303 32.1816C174.424 32.3613 174.484 32.582 174.484 32.8438ZM179.793 27.125H178.703V28.6602H177.039V29.498H178.703V32.9434C178.703 33.334 178.754 33.668 178.855 33.9453C178.961 34.2188 179.104 34.4414 179.283 34.6133C179.463 34.7891 179.674 34.918 179.916 35C180.162 35.0781 180.426 35.1172 180.707 35.1172C180.875 35.1172 181.043 35.1094 181.211 35.0938C181.383 35.0781 181.545 35.0547 181.697 35.0234C181.85 34.9961 181.99 34.9629 182.119 34.9238C182.248 34.8809 182.357 34.832 182.447 34.7773L182.295 34.0098C182.229 34.0254 182.143 34.0449 182.037 34.0684C181.936 34.0879 181.826 34.1074 181.709 34.127C181.588 34.1465 181.465 34.1641 181.34 34.1797C181.215 34.1914 181.094 34.1973 180.977 34.1973C180.816 34.1973 180.664 34.1777 180.52 34.1387C180.379 34.0996 180.254 34.0312 180.145 33.9336C180.035 33.8398 179.949 33.7129 179.887 33.5527C179.824 33.3926 179.793 33.1895 179.793 32.9434V29.498H182.207V28.6602H179.793V27.125ZM188.588 28.543C188.127 28.543 187.715 28.6445 187.352 28.8477C186.992 29.0469 186.684 29.3203 186.426 29.668L186.42 29.5098L186.373 28.6602H185.342V35H186.432V30.9336C186.502 30.7383 186.59 30.5625 186.695 30.4062C186.805 30.2461 186.932 30.1113 187.076 30.002C187.236 29.877 187.424 29.7832 187.639 29.7207C187.854 29.6543 188.094 29.6211 188.359 29.6211C188.566 29.6211 188.764 29.6328 188.951 29.6562C189.143 29.6758 189.344 29.709 189.555 29.7559L189.701 28.6953C189.592 28.6484 189.428 28.6113 189.209 28.584C188.994 28.5566 188.787 28.543 188.588 28.543ZM194.441 35.1172C195.059 35.1172 195.576 34.9941 195.994 34.748C196.416 34.498 196.732 34.2129 196.943 33.8926L196.281 33.377C196.082 33.6348 195.832 33.8418 195.531 33.998C195.23 34.1543 194.887 34.2324 194.5 34.2324C194.207 34.2324 193.939 34.1777 193.697 34.0684C193.455 33.959 193.248 33.8086 193.076 33.6172C192.908 33.4375 192.775 33.2305 192.678 32.9961C192.584 32.7617 192.523 32.4902 192.496 32.1816V32.1406H197.025V31.6543C197.025 31.2129 196.969 30.8027 196.855 30.4238C196.746 30.0449 196.578 29.7148 196.352 29.4336C196.125 29.1562 195.84 28.9395 195.496 28.7832C195.156 28.623 194.758 28.543 194.301 28.543C193.938 28.543 193.582 28.6172 193.234 28.7656C192.891 28.9141 192.584 29.127 192.314 29.4043C192.041 29.6855 191.822 30.0293 191.658 30.4355C191.494 30.8379 191.412 31.2949 191.412 31.8066V32.0527C191.412 32.4941 191.486 32.9023 191.635 33.2773C191.783 33.6523 191.99 33.9766 192.256 34.25C192.521 34.5234 192.84 34.7363 193.211 34.8887C193.586 35.041 193.996 35.1172 194.441 35.1172ZM194.301 29.4336C194.578 29.4336 194.816 29.4844 195.016 29.5859C195.219 29.6875 195.387 29.8203 195.52 29.9844C195.652 30.1484 195.756 30.3438 195.83 30.5703C195.904 30.793 195.941 31.002 195.941 31.1973V31.25H192.531C192.574 30.957 192.648 30.6992 192.754 30.4766C192.863 30.25 192.996 30.0586 193.152 29.9023C193.309 29.75 193.484 29.6348 193.68 29.5566C193.875 29.4746 194.082 29.4336 194.301 29.4336ZM203.014 35H204.145V34.9062C204.074 34.7305 204.02 34.5254 203.98 34.291C203.941 34.0527 203.922 33.8281 203.922 33.6172V30.6699C203.922 30.3145 203.857 30.0039 203.729 29.7383C203.6 29.4727 203.424 29.25 203.201 29.0703C202.975 28.8945 202.707 28.7637 202.398 28.6777C202.09 28.5879 201.756 28.543 201.396 28.543C201.002 28.543 200.648 28.5977 200.336 28.707C200.027 28.8164 199.766 28.959 199.551 29.1348C199.332 29.3145 199.164 29.5156 199.047 29.7383C198.934 29.9609 198.875 30.1875 198.871 30.418H199.961C199.961 30.2852 199.992 30.1582 200.055 30.0371C200.121 29.9121 200.213 29.8047 200.33 29.7148C200.447 29.625 200.59 29.5527 200.758 29.498C200.93 29.4434 201.123 29.416 201.338 29.416C201.568 29.416 201.775 29.4453 201.959 29.5039C202.146 29.5625 202.305 29.6445 202.434 29.75C202.562 29.8594 202.662 29.9902 202.732 30.1426C202.803 30.2949 202.838 30.4668 202.838 30.6582V31.1562H201.654C201.213 31.1562 200.812 31.1992 200.453 31.2852C200.098 31.3711 199.793 31.5 199.539 31.6719C199.285 31.8477 199.088 32.0664 198.947 32.3281C198.811 32.5898 198.742 32.8945 198.742 33.2422C198.742 33.5078 198.793 33.7559 198.895 33.9863C199 34.2129 199.148 34.4082 199.34 34.5723C199.527 34.7402 199.756 34.873 200.025 34.9707C200.299 35.0684 200.604 35.1172 200.939 35.1172C201.146 35.1172 201.342 35.0957 201.525 35.0527C201.709 35.0098 201.883 34.9512 202.047 34.877C202.207 34.8027 202.354 34.7168 202.486 34.6191C202.623 34.5215 202.746 34.418 202.855 34.3086C202.867 34.4414 202.885 34.5703 202.908 34.6953C202.936 34.8164 202.971 34.918 203.014 35ZM201.098 34.1738C200.887 34.1738 200.701 34.1465 200.541 34.0918C200.381 34.0371 200.248 33.9609 200.143 33.8633C200.037 33.7695 199.957 33.6562 199.902 33.5234C199.852 33.3906 199.826 33.2461 199.826 33.0898C199.826 32.9258 199.855 32.7793 199.914 32.6504C199.977 32.5215 200.066 32.4102 200.184 32.3164C200.348 32.1836 200.568 32.0859 200.846 32.0234C201.127 31.957 201.455 31.9238 201.83 31.9238H202.838V33.207C202.775 33.332 202.689 33.4531 202.58 33.5703C202.471 33.6836 202.342 33.7852 202.193 33.875C202.041 33.9648 201.873 34.0371 201.689 34.0918C201.506 34.1465 201.309 34.1738 201.098 34.1738ZM206.553 28.6602H205.58V35H206.611V29.9551C206.635 29.8926 206.664 29.834 206.699 29.7793C206.738 29.7246 206.783 29.6758 206.834 29.6328C206.9 29.5781 206.98 29.5371 207.074 29.5098C207.172 29.4785 207.285 29.4629 207.414 29.4629C207.531 29.4629 207.633 29.4785 207.719 29.5098C207.809 29.5371 207.883 29.582 207.941 29.6445C208.004 29.7109 208.049 29.7949 208.076 29.8965C208.107 29.998 208.123 30.1152 208.123 30.248V35H209.154V30.2539C209.154 30.2305 209.154 30.2109 209.154 30.1953C209.154 30.1758 209.154 30.1562 209.154 30.1367C209.166 30.0391 209.189 29.9512 209.225 29.873C209.26 29.791 209.309 29.7188 209.371 29.6562C209.434 29.5977 209.512 29.5508 209.605 29.5156C209.699 29.4805 209.811 29.4629 209.939 29.4629C210.061 29.4629 210.166 29.4785 210.256 29.5098C210.35 29.541 210.428 29.5879 210.49 29.6504C210.549 29.7168 210.594 29.8008 210.625 29.9023C210.656 30.0039 210.672 30.1211 210.672 30.2539V35H211.703V30.2656C211.703 29.9609 211.668 29.6973 211.598 29.4746C211.527 29.248 211.426 29.0645 211.293 28.9238C211.172 28.7988 211.023 28.7051 210.848 28.6426C210.672 28.5762 210.475 28.543 210.256 28.543C210.096 28.5469 209.947 28.5684 209.811 28.6074C209.678 28.6465 209.557 28.6992 209.447 28.7656C209.361 28.8242 209.281 28.8926 209.207 28.9707C209.133 29.0488 209.068 29.1328 209.014 29.2227C208.971 29.125 208.918 29.0371 208.855 28.959C208.797 28.8809 208.73 28.8145 208.656 28.7598C208.555 28.6895 208.436 28.6367 208.299 28.6016C208.166 28.5625 208.016 28.543 207.848 28.543C207.551 28.5469 207.297 28.6113 207.086 28.7363C206.879 28.8613 206.711 29.0352 206.582 29.2578L206.553 28.6602ZM220.164 31.7715V31.9004C220.164 32.3574 220.23 32.7812 220.363 33.1719C220.496 33.5625 220.688 33.9023 220.938 34.1914C221.184 34.4805 221.484 34.707 221.84 34.8711C222.199 35.0352 222.604 35.1172 223.053 35.1172C223.498 35.1172 223.898 35.0352 224.254 34.8711C224.609 34.707 224.912 34.4805 225.162 34.1914C225.408 33.9023 225.598 33.5625 225.73 33.1719C225.863 32.7812 225.93 32.3574 225.93 31.9004V31.7715C225.93 31.3145 225.863 30.8906 225.73 30.5C225.598 30.1055 225.408 29.7637 225.162 29.4746C224.912 29.1855 224.607 28.959 224.248 28.7949C223.893 28.627 223.49 28.543 223.041 28.543C222.596 28.543 222.195 28.627 221.84 28.7949C221.484 28.959 221.184 29.1855 220.938 29.4746C220.688 29.7637 220.496 30.1055 220.363 30.5C220.23 30.8906 220.164 31.3145 220.164 31.7715ZM221.248 31.9004V31.7715C221.248 31.4629 221.285 31.168 221.359 30.8867C221.434 30.6016 221.547 30.3516 221.699 30.1367C221.848 29.9219 222.033 29.752 222.256 29.627C222.479 29.498 222.74 29.4336 223.041 29.4336C223.342 29.4336 223.604 29.498 223.826 29.627C224.053 29.752 224.242 29.9219 224.395 30.1367C224.543 30.3516 224.654 30.6016 224.729 30.8867C224.807 31.168 224.846 31.4629 224.846 31.7715V31.9004C224.846 32.2129 224.809 32.5117 224.734 32.7969C224.66 33.0781 224.549 33.3262 224.4 33.541C224.248 33.7559 224.059 33.9258 223.832 34.0508C223.609 34.1758 223.35 34.2383 223.053 34.2383C222.752 34.2383 222.488 34.1758 222.262 34.0508C222.035 33.9258 221.848 33.7559 221.699 33.541C221.547 33.3262 221.434 33.0781 221.359 32.7969C221.285 32.5117 221.248 32.2129 221.248 31.9004ZM229.574 32.041L231.9 35H233.277L230.318 31.3027L232.885 28.6602H231.566L229.486 30.7461L228.777 31.5078V26H227.688V35H228.777V32.8086L229.574 32.041Z" fill="#9D9D9D"/>
<defs>
<filter id="filter0_b_357_1702" x="103" y="-16" width="177" height="92" filterUnits="userSpaceOnUse" color-interpolation-filters="sRGB">
<feFlood flood-opacity="0" result="BackgroundImageFix"/>
<feGaussianBlur in="BackgroundImage" stdDeviation="15"/>
<feComposite in2="SourceAlpha" operator="in" result="effect1_backgroundBlur_357_1702"/>
<feBlend mode="normal" in="SourceGraphic" in2="effect1_backgroundBlur_357_1702" result="shape"/>
</filter>
<linearGradient id="paint0_linear_357_1702" x1="149.783" y1="14" x2="160.073" y2="62.8286" gradientUnits="userSpaceOnUse">
<stop stop-color="#5BF0BA"/>
<stop offset="1" stop-color="#5BF0BA" stop-opacity="0.19"/>
</linearGradient>
</defs>
</svg>
