<svg width="64" height="64" viewBox="0 0 64 64" fill="none" xmlns="http://www.w3.org/2000/svg">
<g filter="url(#filter0_b_209_2321)">
<rect width="64" height="64" rx="12" fill="#5BF0BA" fill-opacity="0.1"/>
<rect x="1" y="1" width="62" height="62" rx="11" stroke="url(#paint0_linear_209_2321)" stroke-opacity="0.3" stroke-width="2"/>
</g>
<g clip-path="url(#clip0_209_2321)">
<path d="M36.5926 33.4953C35.5031 33.4953 34.5264 33.978 33.8576 34.7379L32.1437 33.5246C32.3257 33.0237 32.4301 32.4858 32.4301 31.9229C32.4301 31.3697 32.3293 30.8408 32.1533 30.3473L33.8634 29.1469C34.5321 29.903 35.5063 30.383 36.5926 30.383C38.6034 30.383 40.2396 28.7471 40.2396 26.736C40.2396 24.7249 38.6034 23.089 36.5926 23.089C34.5817 23.089 32.9456 24.7249 32.9456 26.736C32.9456 27.096 32.9999 27.4431 33.0975 27.7718L31.3864 28.9728C30.6716 28.0861 29.6424 27.4669 28.4697 27.2779V25.2156C30.1217 24.8686 31.3665 23.4008 31.3665 21.647C31.3665 19.6359 29.7303 18 27.7195 18C25.7086 18 24.0725 19.6359 24.0725 21.647C24.0725 23.3773 25.2849 24.827 26.9039 25.1988V27.2879C24.6944 27.6757 23.0088 29.6039 23.0088 31.9229C23.0088 34.2531 24.7111 36.1884 26.9365 36.5631V38.769C25.301 39.1285 24.0725 40.587 24.0725 42.3292C24.0725 44.3403 25.7086 45.9762 27.7195 45.9762C29.7303 45.9762 31.3665 44.3403 31.3665 42.3292C31.3665 40.587 30.1379 39.1285 28.5024 38.769V36.563C29.6288 36.3733 30.6478 35.7806 31.3697 34.8954L33.095 36.1165C32.9992 36.4423 32.9456 36.786 32.9456 37.1423C32.9456 39.1534 34.5817 40.7893 36.5926 40.7893C38.6034 40.7893 40.2396 39.1534 40.2396 37.1423C40.2396 35.1312 38.6034 33.4953 36.5926 33.4953ZM36.5926 24.9678C37.5676 24.9678 38.3607 25.7612 38.3607 26.736C38.3607 27.7108 37.5676 28.5042 36.5926 28.5042C35.6175 28.5042 34.8244 27.7108 34.8244 26.736C34.8244 25.7612 35.6175 24.9678 36.5926 24.9678ZM25.9512 21.647C25.9512 20.6722 26.7444 19.8788 27.7195 19.8788C28.6945 19.8788 29.4876 20.6722 29.4876 21.647C29.4876 22.6218 28.6945 23.4152 27.7195 23.4152C26.7444 23.4152 25.9512 22.6218 25.9512 21.647ZM29.4876 42.3292C29.4876 43.304 28.6945 44.0973 27.7195 44.0973C26.7444 44.0973 25.9512 43.304 25.9512 42.3292C25.9512 41.3544 26.7444 40.561 27.7195 40.561C28.6945 40.561 29.4876 41.3544 29.4876 42.3292ZM27.7193 34.3889C26.3594 34.3889 25.253 33.2828 25.253 31.9229C25.253 30.5629 26.3594 29.4566 27.7193 29.4566C29.0792 29.4566 30.1855 30.5629 30.1855 31.9229C30.1855 33.2828 29.0792 34.3889 27.7193 34.3889ZM36.5926 38.9105C35.6175 38.9105 34.8244 38.1171 34.8244 37.1423C34.8244 36.1675 35.6175 35.3741 36.5926 35.3741C37.5676 35.3741 38.3607 36.1675 38.3607 37.1423C38.3607 38.1171 37.5676 38.9105 36.5926 38.9105Z" fill="white" fill-opacity="0.8"/>
</g>
<defs>
<filter id="filter0_b_209_2321" x="-30" y="-30" width="124" height="124" filterUnits="userSpaceOnUse" color-interpolation-filters="sRGB">
<feFlood flood-opacity="0" result="BackgroundImageFix"/>
<feGaussianBlur in="BackgroundImageFix" stdDeviation="15"/>
<feComposite in2="SourceAlpha" operator="in" result="effect1_backgroundBlur_209_2321"/>
<feBlend mode="normal" in="SourceGraphic" in2="effect1_backgroundBlur_209_2321" result="shape"/>
</filter>
<linearGradient id="paint0_linear_209_2321" x1="9.18033" y1="-4.1648e-07" x2="58.4918" y2="64" gradientUnits="userSpaceOnUse">
<stop stop-color="#5BF0BA"/>
<stop offset="1" stop-color="#5BF0BA" stop-opacity="0.19"/>
</linearGradient>
<clipPath id="clip0_209_2321">
<rect width="17.248" height="28" fill="white" transform="translate(23 18)"/>
</clipPath>
</defs>
</svg>
