<svg width="48" height="48" viewBox="0 0 48 48" fill="none" xmlns="http://www.w3.org/2000/svg">
<g clip-path="url(#clip0_366_1059)">
<rect width="48" height="48" rx="12" fill="#6A41C6" fill-opacity="0.1"/>
<path d="M14.4308 17.6035L12.7682 16.4918L12.7682 16.4918L14.4308 17.6035ZM19.5138 13.4027L18.7352 11.5605L19.5138 13.4027ZM26.0687 12.6848L25.7073 14.6519L25.7073 14.6519L26.0687 12.6848ZM31.9404 15.6857L33.323 14.2405L33.323 14.2405L31.9404 15.6857ZM35.1983 21.4188L37.1475 20.9707L37.1475 20.9707L35.1983 21.4188ZM29.6156 31.6513C28.7254 32.3053 28.534 33.5571 29.188 34.4472C29.842 35.3374 31.0938 35.5288 31.9839 34.8748L29.6156 31.6513ZM16.012 29.1521C15.0053 27.5944 14.4766 25.7761 14.491 23.9214L10.4911 23.8902C10.4706 26.5258 11.222 29.1097 12.6526 31.3233L16.012 29.1521ZM14.491 23.9214C14.5055 22.0668 15.0625 20.2569 16.0934 18.7151L12.7682 16.4918C11.3033 18.6828 10.5117 21.2547 10.4911 23.8902L14.491 23.9214ZM16.0934 18.7151C17.1243 17.1733 18.584 15.967 20.2924 15.245L18.7352 11.5605C16.3075 12.5866 14.2332 14.3008 12.7682 16.4918L16.0934 18.7151ZM20.2924 15.245C22.0008 14.5229 23.8831 14.3168 25.7073 14.6519L26.4301 10.7177C23.8378 10.2415 21.1629 10.5345 18.7352 11.5605L20.2924 15.245ZM25.7073 14.6519C27.5315 14.987 29.2177 15.8488 30.5579 17.1309L33.323 14.2405C31.4185 12.4186 29.0223 11.194 26.4301 10.7177L25.7073 14.6519ZM30.5578 17.1309C31.898 18.413 32.8336 20.0594 33.2492 21.8669L37.1475 20.9707C36.5569 18.4021 35.2274 16.0625 33.323 14.2405L30.5578 17.1309ZM33.2492 21.8669C33.6648 23.6745 33.5421 25.5641 32.8964 27.3028L36.6462 28.6954C37.5638 26.2246 37.738 23.5393 37.1475 20.9707L33.2492 21.8669ZM32.8964 27.3028C32.2507 29.0415 31.1102 30.5531 29.6156 31.6513L31.9839 34.8748C34.1079 33.3142 35.7287 31.1661 36.6462 28.6954L32.8964 27.3028Z" fill="url(#paint0_angular_366_1059)" fill-opacity="0.6"/>
<g filter="url(#filter0_f_366_1059)">
<path d="M34 22.5C34 21.6716 34.6716 21 35.5 21V21C36.3284 21 37 21.6716 37 22.5V24V25.5C37 26.3284 36.3284 27 35.5 27V27C34.6716 27 34 26.3284 34 25.5V24V22.5Z" fill="#601AFF" fill-opacity="0.9"/>
</g>
<path d="M34.452 23.0386C34.3724 22.5064 34.7704 22 35.3085 22V22C35.6928 22 36.0269 22.2642 36.0959 22.6422C36.1708 23.0534 36.25 23.5857 36.25 24C36.25 24.4143 36.1708 24.9466 36.0959 25.3578C36.0269 25.7358 35.6928 26 35.3085 26V26C34.7704 26 34.3724 25.4936 34.452 24.9614C34.499 24.6465 34.5357 24.3037 34.5357 24C34.5357 23.6963 34.499 23.3535 34.452 23.0386Z" fill="#9566FF"/>
</g>
<rect x="1" y="1" width="46" height="46" rx="11" stroke="#472D86" stroke-opacity="0.3" stroke-width="2"/>
<defs>
<filter id="filter0_f_366_1059" x="26" y="13" width="19" height="22" filterUnits="userSpaceOnUse" color-interpolation-filters="sRGB">
<feFlood flood-opacity="0" result="BackgroundImageFix"/>
<feBlend mode="normal" in="SourceGraphic" in2="BackgroundImageFix" result="shape"/>
<feGaussianBlur stdDeviation="4" result="effect1_foregroundBlur_366_1059"/>
</filter>
<radialGradient id="paint0_angular_366_1059" cx="0" cy="0" r="1" gradientUnits="userSpaceOnUse" gradientTransform="translate(23.9907 23.9955) rotate(143.695) scale(13)">
<stop stop-color="#6A41C6" stop-opacity="0"/>
<stop offset="1" stop-color="#6A41C6"/>
</radialGradient>
<clipPath id="clip0_366_1059">
<rect width="48" height="48" rx="12" fill="white"/>
</clipPath>
</defs>
</svg>
