<svg width="64" height="64" viewBox="0 0 64 64" fill="none" xmlns="http://www.w3.org/2000/svg">
<g filter="url(#filter0_b_209_2328)">
<rect width="64" height="64" rx="12" fill="#5BF0BA" fill-opacity="0.1"/>
<rect x="1" y="1" width="62" height="62" rx="11" stroke="url(#paint0_linear_209_2328)" stroke-opacity="0.3" stroke-width="2"/>
</g>
<g clip-path="url(#clip0_209_2328)">
<path fill-rule="evenodd" clip-rule="evenodd" d="M27.3502 32.4485C27.225 32.8511 26.9532 33.2087 26.553 33.4374L20.6247 36.8341C19.7873 37.3118 18.7207 37.0285 18.2401 36.2023C17.7565 35.3715 18.0411 34.3144 18.8777 33.8353L22.1909 31.9404L18.8777 30.0405C18.0411 29.5621 17.7551 28.5049 18.2401 27.6771C18.7207 26.8487 19.7873 26.5646 20.6247 27.0423L26.553 30.4368C26.9698 30.6753 27.2484 31.0535 27.3654 31.4765C27.4048 31.6125 27.4223 31.7484 27.4291 31.8851C27.4338 32.0734 27.4094 32.2641 27.3502 32.4485ZM28.9588 35.6298C29.8616 35.6942 30.5744 36.4431 30.5744 37.3544V44.1457C30.5744 45.1035 29.7909 45.8787 28.8291 45.8787C27.8626 45.8787 27.0822 45.1035 27.0822 44.1457V40.3472L23.7578 42.248C22.9242 42.7295 21.8583 42.4446 21.3739 41.6177C20.8927 40.7891 21.1773 39.7267 22.0125 39.2483L27.9454 35.8559C28.2643 35.6715 28.618 35.6008 28.9588 35.6298ZM35.0353 28.2491C34.1303 28.1829 33.419 27.4327 33.419 26.5222V19.7299C33.419 18.7754 34.1979 18 35.1652 18C36.1315 18 36.9121 18.7754 36.9121 19.7299V23.5308L40.2341 21.6269C41.0693 21.1485 42.1358 21.4325 42.6173 22.2596C43.0977 23.0912 42.8146 24.1489 41.9787 24.6273L36.0465 28.0227C35.7277 28.2049 35.3747 28.2763 35.0353 28.2491ZM22.0125 24.6273C21.1773 24.1489 20.8927 23.0912 21.3739 22.2596C21.8583 21.4325 22.9242 21.1485 23.7578 21.6269L27.0822 23.5308V19.7299C27.0822 18.7754 27.8626 18 28.8291 18C29.7909 18 30.5744 18.7754 30.5744 19.7299V26.5222C30.5744 27.4327 29.8616 28.1829 28.9588 28.2491C28.618 28.2763 28.2643 28.2049 27.9454 28.0227L22.0125 24.6273ZM32.6675 35.0458C32.5968 35.1179 32.4609 35.1764 32.3576 35.1764H31.6327C31.5332 35.1764 31.3951 35.1179 31.323 35.0458L28.8586 32.6042C28.7881 32.5351 28.7311 32.3968 28.7311 32.2997V31.579C28.7311 31.4795 28.7881 31.3414 28.8586 31.2715L31.323 28.8291C31.3951 28.7579 31.5332 28.7008 31.6327 28.7008H32.3576C32.4587 28.7008 32.5968 28.7579 32.6675 28.8291L35.1333 31.2715C35.2038 31.3414 35.2607 31.4795 35.2607 31.579V32.2997C35.2607 32.3968 35.2038 32.5351 35.1333 32.6042L32.6675 35.0458ZM33.1624 31.9261C33.1624 31.8273 33.1025 31.6899 33.0318 31.6169L32.3174 30.9122C32.2476 30.8424 32.1088 30.7846 32.0093 30.7846H31.9812C31.8817 30.7846 31.7436 30.8424 31.6744 30.9122L30.9601 31.6169C30.8888 31.6899 30.834 31.8273 30.834 31.9261V31.9542C30.834 32.0513 30.8888 32.1873 30.9601 32.2587L31.6744 32.9649C31.7443 33.0348 31.8817 33.0924 31.9812 33.0924H32.0093C32.1088 33.0924 32.2476 33.0348 32.3174 32.9649L33.0318 32.2587C33.1025 32.1873 33.1624 32.0513 33.1624 31.9542V31.9261ZM41.9787 39.2483C42.8146 39.7267 43.0977 40.7891 42.6173 41.6177C42.1358 42.4446 41.0684 42.7295 40.2341 42.248L36.9121 40.3472V44.1457C36.9121 45.1035 36.1315 45.8787 35.1652 45.8787C34.1979 45.8787 33.419 45.1035 33.419 44.1457V37.3544C33.419 36.4431 34.1303 35.6942 35.0353 35.6298C35.3747 35.6008 35.7277 35.6715 36.0465 35.8559L41.9787 39.2483ZM41.8018 31.9404L45.1149 33.8353C45.9515 34.3144 46.2378 35.3715 45.7542 36.2023C45.2713 37.0285 44.2032 37.3118 43.3696 36.8341L37.4366 33.4374C37.0403 33.2087 36.7663 32.8511 36.6441 32.4485C36.5863 32.2641 36.5589 32.0734 36.5659 31.8851C36.5689 31.7484 36.5893 31.6125 36.6272 31.4765C36.7457 31.0535 37.0244 30.6753 37.4366 30.4368L43.3696 27.0423C44.2032 26.5646 45.2713 26.8487 45.7542 27.6771C46.2378 28.5049 45.9515 29.5621 45.1149 30.0405L41.8018 31.9404Z" fill="white" fill-opacity="0.8"/>
</g>
<defs>
<filter id="filter0_b_209_2328" x="-30" y="-30" width="124" height="124" filterUnits="userSpaceOnUse" color-interpolation-filters="sRGB">
<feFlood flood-opacity="0" result="BackgroundImageFix"/>
<feGaussianBlur in="BackgroundImageFix" stdDeviation="15"/>
<feComposite in2="SourceAlpha" operator="in" result="effect1_backgroundBlur_209_2328"/>
<feBlend mode="normal" in="SourceGraphic" in2="effect1_backgroundBlur_209_2328" result="shape"/>
</filter>
<linearGradient id="paint0_linear_209_2328" x1="9.18033" y1="-4.1648e-07" x2="58.4918" y2="64" gradientUnits="userSpaceOnUse">
<stop stop-color="#5BF0BA"/>
<stop offset="1" stop-color="#5BF0BA" stop-opacity="0.19"/>
</linearGradient>
<clipPath id="clip0_209_2328">
<rect width="28" height="27.8927" fill="white" transform="translate(18 18)"/>
</clipPath>
</defs>
</svg>
