<svg width="64" height="64" viewBox="0 0 64 64" fill="none" xmlns="http://www.w3.org/2000/svg">
<g filter="url(#filter0_b_209_2322)">
<rect width="64" height="64" rx="12" fill="#5BF0BA" fill-opacity="0.1"/>
<rect x="1" y="1" width="62" height="62" rx="11" stroke="url(#paint0_linear_209_2322)" stroke-opacity="0.3" stroke-width="2"/>
</g>
<g clip-path="url(#clip0_209_2322)">
<path d="M44.8101 19.1646C45.4683 19.7975 45.8987 20.6329 46 21.5443C46 21.924 45.8987 22.1772 45.6709 22.6582C45.443 23.1392 42.6329 28 41.7975 29.3418C41.3165 30.1266 41.0633 31.0633 41.0633 31.9747C41.0633 32.9114 41.3165 33.8228 41.7975 34.6076C42.6329 35.9494 45.443 40.8354 45.6709 41.3165C45.8987 41.7975 46 42.0253 46 42.4051C45.8987 43.3165 45.4937 44.1519 44.8354 44.7595C44.2025 45.4177 43.3671 45.8481 42.481 45.9241C42.1013 45.9241 41.8481 45.8228 41.3924 45.5949C40.9367 45.3671 35.9747 42.6329 34.6329 41.7975C34.5316 41.7468 34.4304 41.6709 34.3038 41.6202L27.6709 37.6962C27.8228 38.962 28.3798 40.1772 29.2911 41.0633C29.4684 41.2405 29.6456 41.3924 29.8481 41.5443C29.6962 41.6202 29.519 41.6962 29.3671 41.7975C28.0253 42.6329 23.1392 45.443 22.6582 45.6709C22.1772 45.8987 21.9494 46 21.5443 46C20.6329 45.8987 19.7975 45.4937 19.1899 44.8354C18.5316 44.2025 18.1013 43.3671 18 42.4557C18.0253 42.076 18.1266 41.6962 18.3291 41.3671C18.557 40.8861 21.3671 36 22.2025 34.6582C22.6836 33.8734 22.9367 32.962 22.9367 32.0253C22.9367 31.0886 22.6836 30.1772 22.2025 29.3924C21.3671 28 18.5316 23.1139 18.3291 22.6329C18.1266 22.3038 18.0253 21.924 18 21.5443C18.1013 20.6329 18.5063 19.7975 19.1646 19.1646C19.7975 18.5063 20.6329 18.1013 21.5443 18C21.924 18.0253 22.3038 18.1266 22.6582 18.3291C23.0633 18.5063 26.6329 20.5823 28.5316 21.6962L28.962 21.9494C29.1139 22.0506 29.2405 22.1266 29.3418 22.1772L29.5443 22.3038L36.3038 26.3038C36.1519 24.7848 35.3671 23.3924 34.1519 22.4557C34.3038 22.3798 34.481 22.3038 34.6329 22.2025C35.9747 21.3671 40.8608 18.5316 41.3418 18.3291C41.6709 18.1266 42.0506 18.0253 42.4557 18C43.3418 18.1013 44.1772 18.5063 44.8101 19.1646ZM32.3544 33.7975L33.7975 32.3544C34 32.1519 34 31.8481 33.7975 31.6456L32.3544 30.2025C32.1519 30 31.8481 30 31.6456 30.2025L30.2025 31.6456C30 31.8481 30 32.1519 30.2025 32.3544L31.6456 33.7975C31.8228 33.9747 32.1519 33.9747 32.3544 33.7975Z" fill="white" fill-opacity="0.8"/>
</g>
<defs>
<filter id="filter0_b_209_2322" x="-30" y="-30" width="124" height="124" filterUnits="userSpaceOnUse" color-interpolation-filters="sRGB">
<feFlood flood-opacity="0" result="BackgroundImageFix"/>
<feGaussianBlur in="BackgroundImageFix" stdDeviation="15"/>
<feComposite in2="SourceAlpha" operator="in" result="effect1_backgroundBlur_209_2322"/>
<feBlend mode="normal" in="SourceGraphic" in2="effect1_backgroundBlur_209_2322" result="shape"/>
</filter>
<linearGradient id="paint0_linear_209_2322" x1="9.18033" y1="-4.1648e-07" x2="58.4918" y2="64" gradientUnits="userSpaceOnUse">
<stop stop-color="#5BF0BA"/>
<stop offset="1" stop-color="#5BF0BA" stop-opacity="0.19"/>
</linearGradient>
<clipPath id="clip0_209_2322">
<rect width="28" height="28" fill="white" transform="translate(18 18)"/>
</clipPath>
</defs>
</svg>
